<svg width="20" height="20" viewBox="0 0 20 20" fill="none" xmlns="http://www.w3.org/2000/svg">
<mask id="mask0_3178_1652" style="mask-type:alpha" maskUnits="userSpaceOnUse" x="0" y="0" width="20" height="20">
<rect width="20" height="20" fill="#D9D9D9"/>
</mask>
<g mask="url(#mask0_3178_1652)">
<path d="M10 17.9006C8.19764 17.409 6.70542 16.3481 5.52333 14.7179C4.34111 13.0876 3.75 11.2649 3.75 9.24994V4.45515L10 2.11536L16.25 4.45515V8.42952H15V5.31244L10 3.44536L5 5.31244V9.24994C5 10.9305 5.47222 12.4583 6.41667 13.8333C7.36111 15.2083 8.55556 16.1249 10 16.5833C10.3611 16.4722 10.7049 16.3298 11.0313 16.1562C11.3576 15.9826 11.6806 15.7777 12 15.5416L12.846 16.4358C12.4091 16.7734 11.9594 17.0638 11.4969 17.3068C11.0342 17.5499 10.5353 17.7478 10 17.9006ZM17.1952 17.9166C17.018 17.9166 16.8696 17.8567 16.75 17.7368C16.6303 17.617 16.5704 17.4685 16.5704 17.2914C16.5704 17.1142 16.6303 16.9658 16.7502 16.8462C16.8701 16.7265 17.0186 16.6666 17.1958 16.6666C17.3729 16.6666 17.5213 16.7265 17.641 16.8464C17.7606 16.9663 17.8204 17.1147 17.8204 17.2918C17.8204 17.469 17.7605 17.6174 17.6406 17.737C17.5209 17.8567 17.3724 17.9166 17.1952 17.9166ZM16.5704 14.8397V10.2564H17.8204V14.8397H16.5704ZM10 11.6666C10.4583 11.6666 10.8507 11.5034 11.1771 11.177C11.5035 10.8506 11.6667 10.4583 11.6667 9.99994C11.6667 9.54161 11.5035 9.14925 11.1771 8.82286C10.8507 8.49647 10.4583 8.33327 10 8.33327C9.54167 8.33327 9.14931 8.49647 8.82292 8.82286C8.49653 9.14925 8.33333 9.54161 8.33333 9.99994C8.33333 10.4583 8.49653 10.8506 8.82292 11.177C9.14931 11.5034 9.54167 11.6666 10 11.6666ZM10 12.9166C9.19792 12.9166 8.51132 12.631 7.94021 12.0597C7.36896 11.4886 7.08333 10.802 7.08333 9.99994C7.08333 9.19786 7.36896 8.51126 7.94021 7.94015C8.51132 7.3689 9.19792 7.08327 10 7.08327C10.8021 7.08327 11.4887 7.3689 12.0598 7.94015C12.631 8.51126 12.9167 9.19786 12.9167 9.99994C12.9167 10.2812 12.8785 10.5529 12.8021 10.8151C12.7257 11.0772 12.6165 11.3269 12.4744 11.5641L14.9133 13.9904L14.0225 14.8814L11.5704 12.4422C11.3418 12.6003 11.0932 12.7189 10.8246 12.7981C10.5558 12.8771 10.281 12.9166 10 12.9166Z" fill="white" fill-opacity="0.7"/>
</g>
</svg>
