<svg width="20" height="20" viewBox="0 0 20 20" fill="none" xmlns="http://www.w3.org/2000/svg">
<mask id="mask0_3178_1604" style="mask-type:alpha" maskUnits="userSpaceOnUse" x="0" y="0" width="20" height="20">
<rect width="20" height="20" fill="#D9D9D9"/>
</mask>
<g mask="url(#mask0_3178_1604)">
<path d="M10 17.9006C8.19764 17.4091 6.70542 16.3482 5.52333 14.7179C4.34111 13.0876 3.75 11.265 3.75 9.25V4.45521L10 2.11542L16.25 4.45521V8.42958H14.7035V13.7933L12.4744 11.5642C12.6165 11.3269 12.7257 11.0773 12.8021 10.8152C12.8785 10.553 12.9167 10.2813 12.9167 10C12.9167 9.19792 12.631 8.51132 12.0598 7.94021C11.4887 7.36896 10.8021 7.08333 10 7.08333C9.19792 7.08333 8.51132 7.36896 7.94021 7.94021C7.36896 8.51132 7.08333 9.19792 7.08333 10C7.08333 10.8021 7.36896 11.4887 7.94021 12.0598C8.51132 12.631 9.19792 12.9167 10 12.9167C10.281 12.9167 10.5558 12.8772 10.8246 12.7981C11.0932 12.719 11.3418 12.6003 11.5704 12.4423L14.1892 15.0608C13.6143 15.7553 12.9938 16.3418 12.3277 16.8204C11.6616 17.299 10.8857 17.6591 10 17.9006ZM10 11.6667C10.4583 11.6667 10.8507 11.5035 11.1771 11.1771C11.5035 10.8507 11.6667 10.4583 11.6667 10C11.6667 9.54167 11.5035 9.14931 11.1771 8.82292C10.8507 8.49653 10.4583 8.33333 10 8.33333C9.54167 8.33333 9.14931 8.49653 8.82292 8.82292C8.49653 9.14931 8.33333 9.54167 8.33333 10C8.33333 10.4583 8.49653 10.8507 8.82292 11.1771C9.14931 11.5035 9.54167 11.6667 10 11.6667ZM17.1952 17.9167C17.018 17.9167 16.8696 17.8567 16.75 17.7369C16.6303 17.617 16.5704 17.4685 16.5704 17.2915C16.5704 17.1142 16.6303 16.9658 16.7502 16.8463C16.8701 16.7265 17.0186 16.6667 17.1958 16.6667C17.3729 16.6667 17.5213 16.7266 17.641 16.8465C17.7606 16.9663 17.8204 17.1148 17.8204 17.2919C17.8204 17.4691 17.7605 17.6175 17.6406 17.7371C17.5209 17.8568 17.3724 17.9167 17.1952 17.9167ZM16.5704 14.8398V10.2565H17.8204V14.8398H16.5704Z" fill="white"/>
</g>
</svg>
