<svg width="20" height="20" viewBox="0 0 20 20" fill="none" xmlns="http://www.w3.org/2000/svg">
<mask id="mask0_2170_1420" style="mask-type:alpha" maskUnits="userSpaceOnUse" x="0" y="0" width="20" height="20">
<rect width="20" height="20" fill="#D9D9D9"/>
</mask>
<g mask="url(#mask0_2170_1420)">
<path d="M9.98276 17.0834C8.17832 17.0834 6.60568 16.4894 5.26484 15.3013C3.92401 14.1133 3.15214 12.624 2.94922 10.8334H4.22484C4.43526 12.2726 5.08297 13.4657 6.16797 14.4128C7.25283 15.3599 8.52443 15.8334 9.98276 15.8334C11.6078 15.8334 12.9862 15.2674 14.1182 14.1355C15.2501 13.0036 15.8161 11.6251 15.8161 10.0001C15.8161 8.37508 15.2501 6.99661 14.1182 5.86466C12.9862 4.73272 11.6078 4.16675 9.98276 4.16675C9.07248 4.16675 8.21943 4.36897 7.42359 4.77341C6.62762 5.17772 5.94221 5.73404 5.36734 6.44237H7.54693V7.69237H3.31609V3.46154H4.56609V5.43591C5.24234 4.63786 6.05221 4.01848 6.99568 3.57779C7.93901 3.13709 8.93471 2.91675 9.98276 2.91675C10.9657 2.91675 11.8866 3.10265 12.7457 3.47446C13.6046 3.84626 14.3535 4.35161 14.9923 4.9905C15.6312 5.62939 16.1366 6.37835 16.5084 7.23737C16.8802 8.09626 17.0661 9.01717 17.0661 10.0001C17.0661 10.983 16.8802 11.9039 16.5084 12.7628C16.1366 13.6218 15.6312 14.3708 14.9923 15.0097C14.3535 15.6486 13.6046 16.1539 12.7457 16.5257C11.8866 16.8975 10.9657 17.0834 9.98276 17.0834ZM12.4844 13.3559L9.38193 10.2532V5.83341H10.6317V9.74696L13.3626 12.4776L12.4844 13.3559Z" fill="white"/>
</g>
</svg>
