<svg width="20" height="20" viewBox="0 0 20 20" fill="none" xmlns="http://www.w3.org/2000/svg">
<mask id="mask0_3178_1735" style="mask-type:alpha" maskUnits="userSpaceOnUse" x="0" y="0" width="20" height="20">
<rect width="20" height="20" fill="#D9D9D9"/>
</mask>
<g mask="url(#mask0_3178_1735)">
<path d="M9.98374 17.0833C8.17929 17.0833 6.60665 16.4893 5.26582 15.3012C3.92499 14.1132 3.15311 12.6239 2.9502 10.8333H4.22582C4.43624 12.2725 5.08395 13.4656 6.16895 14.4127C7.25381 15.3598 8.5254 15.8333 9.98374 15.8333C11.6087 15.8333 12.9872 15.2674 14.1192 14.1354C15.2511 13.0035 15.8171 11.625 15.8171 9.99999C15.8171 8.37499 15.2511 6.99652 14.1192 5.86457C12.9872 4.73263 11.6087 4.16666 9.98374 4.16666C9.07346 4.16666 8.2204 4.36888 7.42457 4.77332C6.6286 5.17763 5.94318 5.73395 5.36832 6.44228H7.5479V7.69228H3.31707V3.46145H4.56707V5.43582C5.24332 4.63777 6.05318 4.01839 6.99665 3.5777C7.93999 3.137 8.93568 2.91666 9.98374 2.91666C10.9667 2.91666 11.8876 3.10256 12.7467 3.47437C13.6055 3.84617 14.3544 4.35152 14.9933 4.99041C15.6322 5.6293 16.1376 6.37825 16.5094 7.23728C16.8812 8.09617 17.0671 9.01707 17.0671 9.99999C17.0671 10.9829 16.8812 11.9038 16.5094 12.7627C16.1376 13.6217 15.6322 14.3707 14.9933 15.0096C14.3544 15.6485 13.6055 16.1538 12.7467 16.5256C11.8876 16.8974 10.9667 17.0833 9.98374 17.0833ZM12.4854 13.3558L9.3829 10.2531V5.83332H10.6327V9.74687L13.3635 12.4775L12.4854 13.3558Z" fill="white" fill-opacity="0.7"/>
</g>
</svg>
