<svg width="20" height="20" viewBox="0 0 20 20" fill="none" xmlns="http://www.w3.org/2000/svg">
<mask id="mask0_3178_1647" style="mask-type:alpha" maskUnits="userSpaceOnUse" x="0" y="0" width="20" height="20">
<rect width="20" height="20" fill="#D9D9D9"/>
</mask>
<g mask="url(#mask0_3178_1647)">
<path d="M4.42315 17.0834C4.00217 17.0834 3.64585 16.9375 3.35419 16.6459C3.06252 16.3542 2.91669 15.9979 2.91669 15.5769V4.42315C2.91669 4.00217 3.06252 3.64585 3.35419 3.35419C3.64585 3.06252 4.00217 2.91669 4.42315 2.91669H15.5769C15.9979 2.91669 16.3542 3.06252 16.6459 3.35419C16.9375 3.64585 17.0834 4.00217 17.0834 4.42315V5.00002H11.0898C10.264 5.00002 9.59815 5.25301 9.09231 5.75898C8.58634 6.26481 8.33335 6.93065 8.33335 7.75648V12.2436C8.33335 13.0694 8.58634 13.7352 9.09231 14.2411C9.59815 14.747 10.264 15 11.0898 15H17.0834V15.5769C17.0834 15.9979 16.9375 16.3542 16.6459 16.6459C16.3542 16.9375 15.9979 17.0834 15.5769 17.0834H4.42315ZM11.0898 13.75C10.6688 13.75 10.3125 13.6042 10.0209 13.3125C9.72919 13.0209 9.58335 12.6645 9.58335 12.2436V7.75648C9.58335 7.33551 9.72919 6.97919 10.0209 6.68752C10.3125 6.39585 10.6688 6.25002 11.0898 6.25002H16.4102C16.8312 6.25002 17.1875 6.39585 17.4792 6.68752C17.7709 6.97919 17.9167 7.33551 17.9167 7.75648V12.2436C17.9167 12.6645 17.7709 13.0209 17.4792 13.3125C17.1875 13.6042 16.8312 13.75 16.4102 13.75H11.0898ZM13.3334 11.25C13.6945 11.25 13.9931 11.132 14.2292 10.8959C14.4653 10.6597 14.5834 10.3611 14.5834 10C14.5834 9.63891 14.4653 9.3403 14.2292 9.10419C13.9931 8.86808 13.6945 8.75002 13.3334 8.75002C12.9722 8.75002 12.6736 8.86808 12.4375 9.10419C12.2014 9.3403 12.0834 9.63891 12.0834 10C12.0834 10.3611 12.2014 10.6597 12.4375 10.8959C12.6736 11.132 12.9722 11.25 13.3334 11.25Z" fill="white"/>
</g>
</svg>
