<svg width="20" height="20" viewBox="0 0 20 20" fill="none" xmlns="http://www.w3.org/2000/svg">
<mask id="mask0_3178_1599" style="mask-type:alpha" maskUnits="userSpaceOnUse" x="0" y="0" width="20" height="20">
<rect width="20" height="20" fill="#D9D9D9"/>
</mask>
<g mask="url(#mask0_3178_1599)">
<path d="M4.42315 17.0833C4.00759 17.0833 3.65259 16.9362 3.35815 16.6419C3.06384 16.3474 2.91669 15.9924 2.91669 15.5769V4.42312C2.91669 4.00757 3.06384 3.65257 3.35815 3.35812C3.65259 3.06382 4.00759 2.91666 4.42315 2.91666H15.5769C15.9925 2.91666 16.3475 3.06382 16.6419 3.35812C16.9362 3.65257 17.0834 4.00757 17.0834 4.42312V6.69083H15.8334V4.42312C15.8334 4.34826 15.8093 4.2868 15.7613 4.23875C15.7132 4.19069 15.6518 4.16666 15.5769 4.16666H4.42315C4.34828 4.16666 4.28683 4.19069 4.23877 4.23875C4.19071 4.2868 4.16669 4.34826 4.16669 4.42312V15.5769C4.16669 15.6517 4.19071 15.7132 4.23877 15.7612C4.28683 15.8093 4.34828 15.8333 4.42315 15.8333H15.5769C15.6518 15.8333 15.7132 15.8093 15.7613 15.7612C15.8093 15.7132 15.8334 15.6517 15.8334 15.5769V13.3092H17.0834V15.5769C17.0834 15.9924 16.9362 16.3474 16.6419 16.6419C16.3475 16.9362 15.9925 17.0833 15.5769 17.0833H4.42315ZM11.0898 13.75C10.6743 13.75 10.3193 13.6028 10.0248 13.3085C9.73051 13.0141 9.58335 12.6591 9.58335 12.2435V7.75646C9.58335 7.3409 9.73051 6.9859 10.0248 6.69146C10.3193 6.39715 10.6743 6.25 11.0898 6.25H16.4102C16.8258 6.25 17.1808 6.39715 17.4752 6.69146C17.7695 6.9859 17.9167 7.3409 17.9167 7.75646V12.2435C17.9167 12.6591 17.7695 13.0141 17.4752 13.3085C17.1808 13.6028 16.8258 13.75 16.4102 13.75H11.0898ZM16.4102 12.5C16.4851 12.5 16.5465 12.476 16.5946 12.4279C16.6427 12.3799 16.6667 12.3184 16.6667 12.2435V7.75646C16.6667 7.6816 16.6427 7.62014 16.5946 7.57208C16.5465 7.52403 16.4851 7.5 16.4102 7.5H11.0898C11.015 7.5 10.9535 7.52403 10.9054 7.57208C10.8574 7.62014 10.8334 7.6816 10.8334 7.75646V12.2435C10.8334 12.3184 10.8574 12.3799 10.9054 12.4279C10.9535 12.476 11.015 12.5 11.0898 12.5H16.4102ZM13.3334 11.25C13.6806 11.25 13.9757 11.1285 14.2188 10.8854C14.4618 10.6424 14.5834 10.3472 14.5834 10C14.5834 9.65278 14.4618 9.35764 14.2188 9.11458C13.9757 8.87153 13.6806 8.75 13.3334 8.75C12.9861 8.75 12.691 8.87153 12.4479 9.11458C12.2049 9.35764 12.0834 9.65278 12.0834 10C12.0834 10.3472 12.2049 10.6424 12.4479 10.8854C12.691 11.1285 12.9861 11.25 13.3334 11.25Z" fill="white" fill-opacity="0.7"/>
</g>
</svg>
