<svg width="20" height="20" viewBox="0 0 20 20" fill="none" xmlns="http://www.w3.org/2000/svg">
<mask id="mask0_3178_1658" style="mask-type:alpha" maskUnits="userSpaceOnUse" x="0" y="0" width="20" height="20">
<rect width="20" height="20" fill="#D9D9D9"/>
</mask>
<g mask="url(#mask0_3178_1658)">
<path d="M5.00002 17.9167C4.4178 17.9167 3.92502 17.715 3.52169 17.3117C3.11835 16.9084 2.91669 16.4156 2.91669 15.8334V13.4296H5.41669V2.08337H17.0834V15.8334C17.0834 16.4156 16.8817 16.9084 16.4784 17.3117C16.075 17.715 15.5822 17.9167 15 17.9167H5.00002ZM15 16.6667C15.2361 16.6667 15.434 16.5868 15.5938 16.4271C15.7535 16.2674 15.8334 16.0695 15.8334 15.8334V3.33337H6.66669V13.4296H14.1667V15.8334C14.1667 16.0695 14.2465 16.2674 14.4063 16.4271C14.566 16.5868 14.7639 16.6667 15 16.6667ZM7.66023 7.24358V5.99358H14.8398V7.24358H7.66023ZM7.66023 9.64754V8.39754H14.8398V9.64754H7.66023ZM5.00002 16.6667H12.9167V14.6794H4.16669V15.8334C4.16669 16.0695 4.24655 16.2674 4.40627 16.4271C4.56599 16.5868 4.76391 16.6667 5.00002 16.6667ZM5.00002 16.6667H4.16669H12.9167H5.00002Z" fill="white" fill-opacity="0.7"/>
</g>
</svg>
