<svg width="20" height="20" viewBox="0 0 20 20" fill="none" xmlns="http://www.w3.org/2000/svg">
<mask id="mask0_3178_1729" style="mask-type:alpha" maskUnits="userSpaceOnUse" x="0" y="0" width="20" height="20">
<rect width="20" height="20" fill="#D9D9D9"/>
</mask>
<g mask="url(#mask0_3178_1729)">
<path d="M4.99984 17.9167C4.41762 17.9167 3.92484 17.715 3.5215 17.3117C3.11817 16.9083 2.9165 16.4156 2.9165 15.8333V13.4296H5.4165V2.08333H17.0832V15.8333C17.0832 16.4156 16.8815 16.9083 16.4782 17.3117C16.0748 17.715 15.5821 17.9167 14.9998 17.9167H4.99984ZM14.9998 16.6667C15.2359 16.6667 15.4339 16.5868 15.5936 16.4271C15.7533 16.2674 15.8332 16.0694 15.8332 15.8333V3.33333H6.6665V13.4296H14.1665V15.8333C14.1665 16.0694 14.2464 16.2674 14.4061 16.4271C14.5658 16.5868 14.7637 16.6667 14.9998 16.6667ZM7.66005 7.24354V5.99354H14.8396V7.24354H7.66005ZM7.66005 9.64749V8.3975H14.8396V9.64749H7.66005Z" fill="white"/>
</g>
</svg>
