<svg width="20" height="21" viewBox="0 0 20 21" fill="none" xmlns="http://www.w3.org/2000/svg">
<path d="M10 20.5C15.5228 20.5 20 16.0228 20 10.5C20 4.97715 15.5228 0.5 10 0.5C4.47715 0.5 0 4.97715 0 10.5C0 16.0228 4.47715 20.5 10 20.5Z" fill="white" fill-opacity="0.15"/>
<path d="M13.6841 8.45774C13.5863 7.20367 12.5105 6.76455 11.1491 6.62074L11.1797 4.88344L10.1232 4.86618L10.0925 6.55746C9.81446 6.5517 9.53066 6.55362 9.24686 6.55362L9.27754 4.85084L8.22098 4.83167L8.19029 6.56896C7.96211 6.56896 7.73584 6.57088 7.51724 6.56513V6.55937L6.05799 6.53445L6.03881 7.66388C6.03881 7.66388 6.82117 7.66196 6.80775 7.6773C7.23536 7.68497 7.3715 7.93617 7.40794 8.15094L7.37342 10.1298C7.40218 10.1298 7.44053 10.1318 7.48464 10.1394L7.37342 10.1375L7.32548 12.9103C7.30439 13.0445 7.22194 13.2574 6.92088 13.2535C6.9343 13.265 6.15194 13.2401 6.15194 13.2401L5.91992 14.498L7.29672 14.5229C7.55175 14.5287 7.80487 14.5364 8.05223 14.5421L8.02155 16.2986L9.07812 16.3158L9.1088 14.5786C9.39835 14.5881 9.68023 14.5958 9.95444 14.6016L9.92376 16.3312L10.9803 16.3484L11.011 14.5958C12.7905 14.5249 14.0426 14.0992 14.2267 12.4309C14.3744 11.0886 13.7531 10.4769 12.7483 10.2181C13.3657 9.91891 13.7588 9.37625 13.6841 8.45774ZM12.1385 12.1893C12.1174 13.5028 9.87006 13.313 9.1529 13.3015L9.19509 10.9736C9.91225 10.9851 12.1634 10.8182 12.1385 12.1893ZM11.7052 8.89494C11.6841 10.0896 9.81062 9.917 9.21426 9.90741L9.2507 7.79619C9.84705 7.80578 11.7262 7.64854 11.7052 8.89494Z" fill="white"/>
</svg>
