<svg width="40" height="41" viewBox="0 0 40 41" fill="none" xmlns="http://www.w3.org/2000/svg">
<path d="M20 40.5C31.0457 40.5 40 31.5457 40 20.5C40 9.4543 31.0457 0.5 20 0.5C8.9543 0.5 0 9.4543 0 20.5C0 31.5457 8.9543 40.5 20 40.5Z" fill="#F49B33"/>
<path d="M27.3681 16.4162C27.1725 13.9081 25.0211 13.0298 22.2981 12.7422L22.3595 9.26761L20.2464 9.23309L20.185 12.6156C19.6289 12.6041 19.0613 12.608 18.4937 12.608L18.5551 9.20241L16.442 9.16406L16.3806 12.6387C15.9242 12.6387 15.4717 12.6425 15.0345 12.631V12.6195L12.116 12.5696L12.0776 14.8285C12.0776 14.8285 13.6423 14.8247 13.6155 14.8553C14.4707 14.8707 14.743 15.3731 14.8159 15.8026L14.7468 19.7604C14.8044 19.7604 14.8811 19.7643 14.9693 19.7796L14.7468 19.7758L14.651 25.3213C14.6088 25.5898 14.4439 26.0155 13.8418 26.0078C13.8686 26.0308 12.3039 25.9809 12.3039 25.9809L11.8398 28.4968L14.5934 28.5466C15.1035 28.5581 15.6097 28.5735 16.1045 28.585L16.0431 32.0979L18.1562 32.1324L18.2176 28.6578C18.7967 28.677 19.3605 28.6923 19.9089 28.7039L19.8475 32.1631L21.9606 32.1976L22.022 28.6923C25.581 28.5504 28.0853 27.6991 28.4535 24.3625C28.7488 21.678 27.5062 20.4546 25.4966 19.9368C26.7315 19.3386 27.5177 18.2532 27.3681 16.4162ZM24.277 23.8793C24.2349 26.5063 19.7401 26.1267 18.3058 26.1037L18.3902 21.4479C19.8245 21.4709 24.3269 21.1372 24.277 23.8793ZM23.4103 17.2906C23.3681 19.6799 19.6212 19.3347 18.4285 19.3155L18.5014 15.0931C19.6941 15.1123 23.4525 14.7978 23.4103 17.2906Z" fill="white"/>
</svg>
