<svg width="40" height="41" viewBox="0 0 40 41" fill="none" xmlns="http://www.w3.org/2000/svg">
<path d="M20 40.5C31.0457 40.5 40 31.5457 40 20.5C40 9.4543 31.0457 0.5 20 0.5C8.9543 0.5 0 9.4543 0 20.5C0 31.5457 8.9543 40.5 20 40.5Z" fill="#627EEA"/>
<path d="M20.623 5.49609V16.5841L29.9943 20.7722L20.623 5.49609Z" fill="white" fill-opacity="0.6"/>
<path d="M20.6232 5.49609L11.252 20.7722L20.6232 16.5841V5.49609Z" fill="white"/>
<path d="M20.623 27.9577V35.4919L29.9998 22.5176L20.623 27.9577Z" fill="white" fill-opacity="0.6"/>
<path d="M20.6232 35.4919V27.9577L11.252 22.5176L20.6232 35.4919Z" fill="white"/>
<path d="M20.623 26.2142L29.9943 20.774L20.623 16.5859V26.2142Z" fill="white" fill-opacity="0.2"/>
<path d="M11.252 20.774L20.6232 26.2142V16.5859L11.252 20.774Z" fill="white" fill-opacity="0.6"/>
</svg>
