<svg width="20" height="21" viewBox="0 0 20 21" fill="none" xmlns="http://www.w3.org/2000/svg">
<path d="M10 20.5C15.5228 20.5 20 16.0228 20 10.5C20 4.97715 15.5228 0.5 10 0.5C4.47715 0.5 0 4.97715 0 10.5C0 16.0228 4.47715 20.5 10 20.5Z" fill="white" fill-opacity="0.15"/>
<path d="M10.3115 2.99854V8.54255L14.9971 10.6366L10.3115 2.99854Z" fill="white" fill-opacity="0.6"/>
<path d="M10.3116 2.99854L5.62598 10.6366L10.3116 8.54255V2.99854Z" fill="white"/>
<path d="M10.3115 14.2287V17.9958L14.9999 11.5087L10.3115 14.2287Z" fill="white" fill-opacity="0.6"/>
<path d="M10.3116 17.9958V14.2287L5.62598 11.5087L10.3116 17.9958Z" fill="white"/>
<path d="M10.3115 13.3568L14.9971 10.6368L10.3115 8.54272V13.3568Z" fill="white" fill-opacity="0.2"/>
<path d="M5.62598 10.6368L10.3116 13.3568V8.54272L5.62598 10.6368Z" fill="white" fill-opacity="0.6"/>
</svg>
