<svg width="20" height="21" viewBox="0 0 20 21" fill="none" xmlns="http://www.w3.org/2000/svg">
<g clip-path="url(#clip0_1465_3807)">
<mask id="mask0_1465_3807" style="mask-type:luminance" maskUnits="userSpaceOnUse" x="0" y="0" width="20" height="21">
<path d="M15 0.5H5C2.23858 0.5 0 2.73858 0 5.5V15.5C0 18.2614 2.23858 20.5 5 20.5H15C17.7614 20.5 20 18.2614 20 15.5V5.5C20 2.73858 17.7614 0.5 15 0.5Z" fill="white"/>
</mask>
<g mask="url(#mask0_1465_3807)">
<path d="M15 0.5H5C2.23858 0.5 0 2.73858 0 5.5V15.5C0 18.2614 2.23858 20.5 5 20.5H15C17.7614 20.5 20 18.2614 20 15.5V5.5C20 2.73858 17.7614 0.5 15 0.5Z" fill="white" fill-opacity="0.15"/>
</g>
<g clip-path="url(#clip1_1465_3807)">
<path d="M5.45508 8.75088L14.0914 3.68176L13.8626 7.28955L6.50746 11.6066L5.45508 8.75088Z" fill="white"/>
<path opacity="0.5" d="M6.50781 11.6064L12.5817 8.04126L12.3529 11.649L7.56019 14.4621L6.50781 11.6064Z" fill="white"/>
<path opacity="0.25" d="M7.55859 14.4627L11.0701 12.4016L10.8412 16.0094L8.61097 17.3185L7.55859 14.4627Z" fill="white"/>
</g>
</g>
<defs>
<clipPath id="clip0_1465_3807">
<rect y="0.5" width="20" height="20" rx="10" fill="white"/>
</clipPath>
<clipPath id="clip1_1465_3807">
<rect width="9.6875" height="15" fill="white" transform="translate(5 3)"/>
</clipPath>
</defs>
</svg>
