<svg width="41" height="41" viewBox="0 0 41 41" fill="none" xmlns="http://www.w3.org/2000/svg">
<g clip-path="url(#clip0_539_16781)">
<mask id="mask0_539_16781" style="mask-type:luminance" maskUnits="userSpaceOnUse" x="0" y="0" width="41" height="41">
<path d="M30.5 0.5H10.5C4.97715 0.5 0.5 4.97715 0.5 10.5V30.5C0.5 36.0228 4.97715 40.5 10.5 40.5H30.5C36.0228 40.5 40.5 36.0228 40.5 30.5V10.5C40.5 4.97715 36.0228 0.5 30.5 0.5Z" fill="white"/>
</mask>
<g mask="url(#mask0_539_16781)">
<path d="M30.5 0.5H10.5C4.97715 0.5 0.5 4.97715 0.5 10.5V30.5C0.5 36.0228 4.97715 40.5 10.5 40.5H30.5C36.0228 40.5 40.5 36.0228 40.5 30.5V10.5C40.5 4.97715 36.0228 0.5 30.5 0.5Z" fill="url(#paint0_linear_539_16781)"/>
<path d="M0.5 20.5C0.5 9.45431 9.45431 0.5 20.5 0.5C31.5457 0.5 40.5 9.45431 40.5 20.5C40.5 31.5457 31.5457 40.5 20.5 40.5C9.45431 40.5 0.5 31.5457 0.5 20.5Z" fill="url(#paint1_linear_539_16781)"/>
</g>
<path d="M11.4093 17.0018L28.682 6.86353L28.2244 14.0791L13.5141 22.7132L11.4093 17.0018Z" fill="#004104"/>
<path opacity="0.5" d="M13.5139 22.7129L25.6618 15.5826L25.2041 22.7982L15.6187 28.4243L13.5139 22.7129Z" fill="#004104"/>
<path opacity="0.25" d="M15.6173 28.4255L22.6403 24.3033L22.1826 31.5189L17.7221 34.137L15.6173 28.4255Z" fill="#004104"/>
</g>
<rect x="1.40909" y="1.40909" width="38.1818" height="38.1818" rx="19.0909" stroke="url(#paint2_linear_539_16781)" stroke-width="1.81818"/>
<defs>
<linearGradient id="paint0_linear_539_16781" x1="20.5" y1="7.72222" x2="20.5" y2="30.5" gradientUnits="userSpaceOnUse">
<stop stop-color="#4BB255"/>
<stop offset="1" stop-color="#99E39E"/>
</linearGradient>
<linearGradient id="paint1_linear_539_16781" x1="20.5" y1="0.500001" x2="22.1667" y2="40.5" gradientUnits="userSpaceOnUse">
<stop stop-color="white" stop-opacity="0"/>
<stop offset="1" stop-color="white" stop-opacity="0.12"/>
</linearGradient>
<linearGradient id="paint2_linear_539_16781" x1="20.5" y1="0.5" x2="20.5" y2="40.5" gradientUnits="userSpaceOnUse">
<stop stop-color="white" stop-opacity="0.25"/>
<stop offset="1" stop-color="white" stop-opacity="0"/>
</linearGradient>
<clipPath id="clip0_539_16781">
<rect x="0.5" y="0.5" width="40" height="40" rx="20" fill="white"/>
</clipPath>
</defs>
</svg>
