<svg width="20" height="20" viewBox="0 0 20 20" fill="none" xmlns="http://www.w3.org/2000/svg">
<path d="M10 20C15.5228 20 20 15.5228 20 10C20 4.47715 15.5228 0 10 0C4.47715 0 0 4.47715 0 10C0 15.5228 4.47715 20 10 20Z" fill="white" fill-opacity="0.15"/>
<path d="M15.2764 13.0959L13.5711 14.8774C13.5339 14.9163 13.489 14.9471 13.4394 14.9681C13.3895 14.9892 13.3357 15 13.2815 15H5.19793C5.15948 15 5.12182 14.9891 5.08938 14.9685C5.05731 14.9481 5.03193 14.9187 5.01638 14.884C5.00104 14.8497 4.99633 14.8115 5.00287 14.7745C5.0095 14.7372 5.02702 14.7028 5.05323 14.6756L6.75972 12.894C6.79691 12.8553 6.84161 12.8245 6.89108 12.8035C6.94088 12.7824 6.99442 12.7715 7.04852 12.7714H15.1316C15.1701 12.7714 15.2077 12.7824 15.2402 12.803C15.2722 12.8234 15.2976 12.8528 15.3132 12.8874C15.3286 12.9218 15.3332 12.9599 15.3267 12.997C15.3201 13.0342 15.3026 13.0686 15.2764 13.0959ZM13.5711 9.50827C13.5339 9.46942 13.489 9.43858 13.4394 9.41763C13.3895 9.39651 13.3357 9.38565 13.2815 9.3857H5.19793C5.15947 9.38566 5.12181 9.39663 5.08938 9.41729C5.05732 9.43768 5.03194 9.46702 5.01638 9.50169C5.00103 9.53604 4.99633 9.57421 5.00287 9.61127C5.00951 9.64848 5.02703 9.68288 5.05323 9.71013L6.75972 11.4917C6.79692 11.5305 6.84161 11.5613 6.89108 11.5822C6.94074 11.6033 6.99437 11.6142 7.04852 11.6143H15.1316C15.1701 11.6143 15.2077 11.6034 15.2402 11.5827C15.2722 11.5623 15.2976 11.533 15.3132 11.4983C15.3285 11.4639 15.3332 11.4258 15.3267 11.3887C15.3201 11.3515 15.3025 11.3171 15.2764 11.2899L13.5711 9.50827ZM5.19797 8.22857H13.2815C13.3358 8.22861 13.3895 8.21775 13.4395 8.19663C13.4891 8.17568 13.5339 8.14484 13.5712 8.10599L15.2764 6.32439C15.3026 6.29714 15.3201 6.26274 15.3268 6.22553C15.3333 6.18847 15.3286 6.15031 15.3133 6.11595C15.2977 6.08132 15.2723 6.05199 15.2402 6.03159C15.2078 6.01093 15.1701 5.99997 15.1316 6H7.04852C6.99442 6.00007 6.94089 6.01097 6.89108 6.03206C6.84161 6.053 6.79692 6.08378 6.75972 6.12253L5.05361 7.90413C5.02745 7.93136 5.00994 7.96573 5.0033 8.00291C4.99674 8.03993 5.00142 8.07806 5.01673 8.1124C5.03224 8.14703 5.05756 8.17636 5.08955 8.19676C5.12191 8.21746 5.15955 8.22849 5.19797 8.22857Z" fill="white"/>
</svg>
