<svg width="633" height="633" viewBox="0 0 633 633" fill="none" xmlns="http://www.w3.org/2000/svg">
<g clip-path="url(#clip0_840_318)">
<mask id="mask0_840_318" style="mask-type:luminance" maskUnits="userSpaceOnUse" x="0" y="0" width="633" height="633">
<path d="M474.75 0H158.25C70.8509 0 0 70.8509 0 158.25V474.75C0 562.149 70.8509 633 158.25 633H474.75C562.149 633 633 562.149 633 474.75V158.25C633 70.8509 562.149 0 474.75 0Z" fill="white"/>
</mask>
<g mask="url(#mask0_840_318)">
<path d="M474.75 0H158.25C70.8509 0 0 70.8509 0 158.25V474.75C0 562.149 70.8509 633 158.25 633H474.75C562.149 633 633 562.149 633 474.75V158.25C633 70.8509 562.149 0 474.75 0Z" fill="url(#paint0_linear_840_318)"/>
<path d="M0 316.5C0 141.702 141.702 0 316.5 0V0C491.298 0 633 141.702 633 316.5V316.5C633 491.298 491.298 633 316.5 633V633C141.702 633 0 491.298 0 316.5V316.5Z" fill="url(#paint1_linear_840_318)"/>
</g>
<g clip-path="url(#clip1_840_318)">
<path d="M268.997 396.755V390.546C269.118 369.242 271.005 352.26 274.657 339.599C278.431 326.938 283.909 316.712 291.092 308.921C298.275 301.13 306.918 294.069 317.022 287.739C324.57 282.869 331.326 277.817 337.291 272.582C343.257 267.348 348.004 261.565 351.535 255.235C355.065 248.783 356.83 241.6 356.83 233.687C356.83 225.287 354.822 217.922 350.804 211.592C346.787 205.261 341.37 200.392 334.552 196.983C327.857 193.575 320.431 191.87 312.274 191.87C304.361 191.87 296.875 193.636 289.814 197.166C282.753 200.575 276.97 205.688 272.466 212.505C267.962 219.2 265.527 227.539 265.162 237.522H190.659C191.267 213.174 197.111 193.088 208.189 177.262C219.267 161.314 233.936 149.445 252.197 141.654C270.457 133.741 290.605 129.784 312.64 129.784C336.865 129.784 358.291 133.802 376.917 141.836C395.543 149.749 410.151 161.253 420.743 176.349C431.334 191.444 436.629 209.644 436.629 230.948C436.629 245.191 434.255 257.852 429.508 268.93C424.882 279.887 418.369 289.626 409.969 298.147C401.569 306.547 391.647 314.156 380.204 320.973C370.587 326.695 362.674 332.66 356.465 338.868C350.378 345.077 345.813 352.26 342.77 360.416C339.848 368.572 338.326 378.616 338.204 390.546V396.755H268.997ZM305.153 513.623C292.979 513.623 282.57 509.362 273.927 500.84C265.405 492.197 261.205 481.849 261.327 469.797C261.205 457.867 265.405 447.641 273.927 439.119C282.57 430.598 292.979 426.337 305.153 426.337C316.718 426.337 326.883 430.598 335.648 439.119C344.413 447.641 348.856 457.867 348.978 469.797C348.856 477.832 346.726 485.197 342.587 491.893C338.57 498.466 333.274 503.762 326.7 507.779C320.126 511.675 312.944 513.623 305.153 513.623Z" fill="url(#paint2_linear_840_318)"/>
</g>
</g>
<rect x="14.3864" y="14.3864" width="604.227" height="604.227" rx="302.114" stroke="url(#paint3_linear_840_318)" stroke-width="28.7727"/>
<defs>
<linearGradient id="paint0_linear_840_318" x1="316.5" y1="0" x2="316.5" y2="633" gradientUnits="userSpaceOnUse">
<stop stop-color="#99E39E"/>
<stop offset="1" stop-color="#4BB255"/>
</linearGradient>
<linearGradient id="paint1_linear_840_318" x1="316.5" y1="1.29696e-05" x2="342.875" y2="633" gradientUnits="userSpaceOnUse">
<stop stop-color="white" stop-opacity="0"/>
<stop offset="1" stop-color="white" stop-opacity="0.12"/>
</linearGradient>
<linearGradient id="paint2_linear_840_318" x1="351.62" y1="10.875" x2="259.62" y2="732.875" gradientUnits="userSpaceOnUse">
<stop/>
<stop offset="1" stop-color="#666666" stop-opacity="0.4"/>
</linearGradient>
<linearGradient id="paint3_linear_840_318" x1="316.5" y1="0" x2="316.5" y2="633" gradientUnits="userSpaceOnUse">
<stop stop-color="white" stop-opacity="0.25"/>
<stop offset="1" stop-color="white" stop-opacity="0"/>
</linearGradient>
<clipPath id="clip0_840_318">
<rect width="633" height="633" rx="316.5" fill="white"/>
</clipPath>
<clipPath id="clip1_840_318">
<rect width="306.609" height="474.75" fill="white" transform="translate(147 80)"/>
</clipPath>
</defs>
</svg>
