<svg width="20" height="20" viewBox="0 0 20 20" fill="none" xmlns="http://www.w3.org/2000/svg">
<mask id="mask0_2126_1166" style="mask-type:alpha" maskUnits="userSpaceOnUse" x="0" y="0" width="20" height="20">
<rect width="20" height="20" fill="#D9D9D9"/>
</mask>
<g mask="url(#mask0_2126_1166)">
<path d="M15.7757 17.0833L11.1814 12.4888L12.4984 11.1715L17.093 15.766L15.7757 17.0833ZM4.23573 17.0833L2.91844 15.766L8.6926 9.99209L6.74698 8.05438L6.22781 8.57375L5.30156 7.63938V9.24354L4.78219 9.76271L2.42969 7.41021L2.94885 6.89104H4.55302L3.63156 5.9775L6.01302 3.59625C6.24802 3.36111 6.50253 3.1891 6.77656 3.08021C7.05059 2.97118 7.33559 2.91667 7.63156 2.91667C7.92753 2.91667 8.21253 2.97118 8.48656 3.08021C8.76059 3.1891 9.0151 3.36111 9.2501 3.59625L7.60594 5.24042L8.58344 6.21792L8.06427 6.73709L10.0097 8.67479L12.013 6.67146C11.9201 6.50271 11.8523 6.32834 11.8095 6.14834C11.7667 5.9682 11.7453 5.77882 11.7453 5.58021C11.7453 4.83021 12.0039 4.19667 12.5209 3.67959C13.038 3.1625 13.6716 2.90396 14.4216 2.90396C14.598 2.90396 14.7665 2.91945 14.9272 2.95042C15.088 2.98139 15.2496 3.0332 15.412 3.10584L13.5178 5L15.0018 6.48396L16.8959 4.58979C16.9772 4.75216 17.0311 4.91375 17.0578 5.07459C17.0845 5.23528 17.0978 5.40382 17.0978 5.58021C17.0978 6.33021 16.8393 6.96375 16.3222 7.48084C15.8051 7.99792 15.1716 8.25646 14.4216 8.25646C14.223 8.25646 14.0336 8.23722 13.8534 8.19875C13.6734 8.16028 13.4991 8.09028 13.3303 7.98875L4.23573 17.0833Z" fill="#99E39E"/>
</g>
</svg>
