<svg width="20" height="20" viewBox="0 0 20 20" fill="none" xmlns="http://www.w3.org/2000/svg">
<mask id="mask0_1386_9035" style="mask-type:alpha" maskUnits="userSpaceOnUse" x="0" y="0" width="20" height="20">
<rect width="20" height="20" fill="#D9D9D9"/>
</mask>
<g mask="url(#mask0_1386_9035)">
<path d="M7.54813 14.5835C7.12715 14.5835 6.77083 14.4377 6.47917 14.146C6.1875 13.8543 6.04167 13.498 6.04167 13.077V3.58995C6.04167 3.16898 6.1875 2.81266 6.47917 2.521C6.77083 2.22933 7.12715 2.0835 7.54813 2.0835H14.5352C14.9562 2.0835 15.3125 2.22933 15.6042 2.521C15.8958 2.81266 16.0417 3.16898 16.0417 3.58995V13.077C16.0417 13.498 15.8958 13.8543 15.6042 14.146C15.3125 14.4377 14.9562 14.5835 14.5352 14.5835H7.54813ZM4.63146 17.5002C4.21049 17.5002 3.85417 17.3543 3.5625 17.0627C3.27083 16.771 3.125 16.4147 3.125 15.9937V5.25662H4.375V15.9937C4.375 16.0579 4.40174 16.1166 4.45521 16.17C4.50854 16.2234 4.56729 16.2502 4.63146 16.2502H12.8685V17.5002H4.63146Z" fill="white"/>
</g>
</svg>
