<svg width="20" height="21" viewBox="0 0 20 21" fill="none" xmlns="http://www.w3.org/2000/svg">
<mask id="mask0_3256_12246" style="mask-type:alpha" maskUnits="userSpaceOnUse" x="0" y="0" width="20" height="21">
<rect y="0.5" width="20" height="20" fill="#D9D9D9"/>
</mask>
<g mask="url(#mask0_3256_12246)">
<path d="M7.54813 15.083C7.12715 15.083 6.77083 14.9372 6.47917 14.6455C6.1875 14.3538 6.04167 13.9975 6.04167 13.5766V4.08947C6.04167 3.66849 6.1875 3.31217 6.47917 3.02051C6.77083 2.72884 7.12715 2.58301 7.54813 2.58301H14.5352C14.9562 2.58301 15.3125 2.72884 15.6042 3.02051C15.8958 3.31217 16.0417 3.66849 16.0417 4.08947V13.5766C16.0417 13.9975 15.8958 14.3538 15.6042 14.6455C15.3125 14.9372 14.9562 15.083 14.5352 15.083H7.54813ZM7.54813 13.833H14.5352C14.5994 13.833 14.6581 13.8063 14.7115 13.7528C14.7649 13.6995 14.7917 13.6407 14.7917 13.5766V4.08947C14.7917 4.0253 14.7649 3.96655 14.7115 3.91322C14.6581 3.85974 14.5994 3.83301 14.5352 3.83301H7.54813C7.48396 3.83301 7.42521 3.85974 7.37188 3.91322C7.3184 3.96655 7.29167 4.0253 7.29167 4.08947V13.5766C7.29167 13.6407 7.3184 13.6995 7.37188 13.7528C7.42521 13.8063 7.48396 13.833 7.54813 13.833ZM4.63146 17.9997C4.21049 17.9997 3.85417 17.8538 3.5625 17.5622C3.27083 17.2705 3.125 16.9142 3.125 16.4932V5.75613H4.375V16.4932C4.375 16.5574 4.40174 16.6161 4.45521 16.6695C4.50854 16.7229 4.56729 16.7497 4.63146 16.7497H12.8685V17.9997H4.63146Z" fill="#99E39E"/>
</g>
</svg>
