<svg width="20" height="21" viewBox="0 0 20 21" fill="none" xmlns="http://www.w3.org/2000/svg">
<mask id="mask0_1386_10813" style="mask-type:alpha" maskUnits="userSpaceOnUse" x="0" y="0" width="20" height="21">
<rect y="0.5" width="20" height="20" fill="#D9D9D9"/>
</mask>
<g mask="url(#mask0_1386_10813)">
<path d="M7.54813 15.0834C7.12715 15.0834 6.77083 14.9375 6.47917 14.6459C6.1875 14.3542 6.04167 13.9979 6.04167 13.5769V4.08983C6.04167 3.66886 6.1875 3.31254 6.47917 3.02087C6.77083 2.72921 7.12715 2.58337 7.54813 2.58337H14.5352C14.9562 2.58337 15.3125 2.72921 15.6042 3.02087C15.8958 3.31254 16.0417 3.66886 16.0417 4.08983V13.5769C16.0417 13.9979 15.8958 14.3542 15.6042 14.6459C15.3125 14.9375 14.9562 15.0834 14.5352 15.0834H7.54813ZM7.54813 13.8334H14.5352C14.5994 13.8334 14.6581 13.8066 14.7115 13.7532C14.7649 13.6998 14.7917 13.6411 14.7917 13.5769V4.08983C14.7917 4.02567 14.7649 3.96692 14.7115 3.91358C14.6581 3.86011 14.5994 3.83337 14.5352 3.83337H7.54813C7.48396 3.83337 7.42521 3.86011 7.37188 3.91358C7.3184 3.96692 7.29167 4.02567 7.29167 4.08983V13.5769C7.29167 13.6411 7.3184 13.6998 7.37188 13.7532C7.42521 13.8066 7.48396 13.8334 7.54813 13.8334ZM4.63146 18C4.21049 18 3.85417 17.8542 3.5625 17.5625C3.27083 17.2709 3.125 16.9146 3.125 16.4936V5.7565H4.375V16.4936C4.375 16.5578 4.40174 16.6165 4.45521 16.6698C4.50854 16.7233 4.56729 16.75 4.63146 16.75H12.8685V18H4.63146Z" fill="#99E39E"/>
</g>
</svg>
