<svg width="20" height="20" viewBox="0 0 20 20" fill="none" xmlns="http://www.w3.org/2000/svg">
<mask id="mask0_1386_10698" style="mask-type:alpha" maskUnits="userSpaceOnUse" x="0" y="0" width="20" height="20">
<rect width="20" height="20" fill="#D9D9D9"/>
</mask>
<g mask="url(#mask0_1386_10698)">
<path d="M6.875 14.7917H13.125V13.5417H6.875V14.7917ZM6.875 11.4584H13.125V10.2084H6.875V11.4584ZM5.25646 17.9167C4.83549 17.9167 4.47917 17.7709 4.1875 17.4792C3.89583 17.1875 3.75 16.8312 3.75 16.4102V3.58983C3.75 3.16886 3.89583 2.81254 4.1875 2.52087C4.47917 2.22921 4.83549 2.08337 5.25646 2.08337H11.875L16.25 6.45837V16.4102C16.25 16.8312 16.1042 17.1875 15.8125 17.4792C15.5208 17.7709 15.1645 17.9167 14.7435 17.9167H5.25646ZM11.25 7.08337V3.33337H5.25646C5.19229 3.33337 5.13354 3.36011 5.08021 3.41358C5.02674 3.46692 5 3.52567 5 3.58983V16.4102C5 16.4744 5.02674 16.5332 5.08021 16.5865C5.13354 16.64 5.19229 16.6667 5.25646 16.6667H14.7435C14.8077 16.6667 14.8665 16.64 14.9198 16.5865C14.9733 16.5332 15 16.4744 15 16.4102V7.08337H11.25Z" fill="#9BE4A0"/>
</g>
</svg>
