<svg width="20" height="20" viewBox="0 0 20 20" fill="none" xmlns="http://www.w3.org/2000/svg">
<path d="M17.6 7.77754V8.35532C17.5988 9.33292 17.2439 10.2771 16.6009 11.0134C15.9578 11.7498 15.0701 12.2286 14.1016 12.3615C14.4969 12.8674 14.7115 13.4911 14.7111 14.1331V17.022C14.7111 17.1752 14.6502 17.3222 14.5419 17.4305C14.4335 17.5389 14.2866 17.5998 14.1333 17.5998H9.51111C9.35788 17.5998 9.21092 17.5389 9.10256 17.4305C8.99421 17.3222 8.93333 17.1752 8.93333 17.022V15.8664H7.2C6.43382 15.8664 5.69902 15.5621 5.15725 15.0203C4.61548 14.4785 4.31111 13.7437 4.31111 12.9775C4.31111 12.5178 4.12849 12.077 3.80343 11.7519C3.47837 11.4268 3.03749 11.2442 2.57778 11.2442C2.42454 11.2442 2.27758 11.1833 2.16923 11.075C2.06087 10.9666 2 10.8197 2 10.6664C2 10.5132 2.06087 10.3662 2.16923 10.2579C2.27758 10.1495 2.42454 10.0887 2.57778 10.0887C2.95715 10.0887 3.33281 10.1634 3.68331 10.3086C4.0338 10.4537 4.35227 10.6665 4.62053 10.9348C4.88879 11.203 5.10158 11.5215 5.24676 11.872C5.39194 12.2225 5.46667 12.5982 5.46667 12.9775C5.46667 13.4373 5.64929 13.8781 5.97435 14.2032C6.29941 14.5283 6.74029 14.7109 7.2 14.7109H8.93333V14.1331C8.93296 13.4911 9.14755 12.8674 9.54289 12.3615C8.57436 12.2286 7.68661 11.7498 7.04358 11.0134C6.40055 10.2771 6.04566 9.33292 6.04444 8.35532V7.77754C6.05164 7.05949 6.24286 6.35528 6.59983 5.73221C6.42323 5.16252 6.36658 4.56241 6.43345 3.96974C6.50033 3.37706 6.68928 2.80467 6.98839 2.28865C7.03911 2.2008 7.11207 2.12785 7.19993 2.07714C7.28778 2.02643 7.38745 1.99974 7.48889 1.99977C8.16187 1.99836 8.82584 2.15437 9.42777 2.45533C10.0297 2.7563 10.5529 3.19387 10.9556 3.7331H12.6889C13.0915 3.19387 13.6147 2.7563 14.2167 2.45533C14.8186 2.15437 15.4826 1.99836 16.1556 1.99977C16.257 1.99974 16.3567 2.02643 16.4445 2.07714C16.5324 2.12785 16.6053 2.2008 16.6561 2.28865C16.9552 2.80466 17.1441 3.37708 17.2109 3.96978C17.2776 4.56249 17.2208 5.16259 17.0439 5.73221C17.4015 6.35504 17.593 7.05936 17.6 7.77754Z" fill="#9BE4A0"/>
</svg>
