<svg width="20" height="21" viewBox="0 0 20 21" fill="none" xmlns="http://www.w3.org/2000/svg">
<mask id="mask0_3256_12241" style="mask-type:alpha" maskUnits="userSpaceOnUse" x="0" y="0" width="20" height="21">
<rect y="0.5" width="20" height="20" fill="#D9D9D9"/>
</mask>
<g mask="url(#mask0_3256_12241)">
<path d="M9.99075 15.179C10.2287 15.179 10.4296 15.097 10.5937 14.9328C10.7577 14.7685 10.8397 14.5673 10.8397 14.3293C10.8397 14.0913 10.7576 13.8904 10.5933 13.7263C10.4289 13.5625 10.2278 13.4805 9.98992 13.4805C9.752 13.4805 9.55103 13.5627 9.387 13.727C9.22297 13.8913 9.14096 14.0924 9.14096 14.3303C9.14096 14.5682 9.22311 14.7692 9.38742 14.9332C9.55172 15.0971 9.75284 15.179 9.99075 15.179ZM9.40054 12.1951H10.5737C10.5844 11.785 10.6444 11.4572 10.7539 11.212C10.8635 10.9668 11.1292 10.6418 11.5512 10.237C11.9177 9.87044 12.1984 9.53197 12.3933 9.22155C12.5883 8.91127 12.6858 8.54481 12.6858 8.12217C12.6858 7.40481 12.428 6.84447 11.9126 6.44113C11.3971 6.03794 10.7873 5.83634 10.0833 5.83634C9.3877 5.83634 8.81214 6.02197 8.35659 6.39322C7.90089 6.76447 7.57582 7.20169 7.38138 7.70488L8.45179 8.13426C8.55332 7.85759 8.72693 7.58808 8.97263 7.32572C9.21832 7.06349 9.58318 6.93238 10.0672 6.93238C10.5597 6.93238 10.9237 7.06724 11.1593 7.33697C11.395 7.60683 11.5128 7.90356 11.5128 8.22717C11.5128 8.51037 11.4321 8.76947 11.2708 9.00447C11.1095 9.23947 10.9039 9.46648 10.6539 9.68551C10.1068 10.1791 9.76117 10.5729 9.617 10.8668C9.4727 11.1605 9.40054 11.6033 9.40054 12.1951ZM10.0014 18.4163C8.90638 18.4163 7.87714 18.2086 6.91367 17.793C5.9502 17.3775 5.11214 16.8135 4.3995 16.1011C3.68686 15.3888 3.12263 14.5511 2.70679 13.588C2.2911 12.625 2.08325 11.596 2.08325 10.5011C2.08325 9.40613 2.29103 8.3769 2.70659 7.41342C3.12214 6.44995 3.6861 5.6119 4.39846 4.89926C5.11082 4.18662 5.94853 3.62238 6.91159 3.20655C7.87464 2.79085 8.9036 2.58301 9.99846 2.58301C11.0935 2.58301 12.1227 2.79079 13.0862 3.20634C14.0496 3.6219 14.8877 4.18586 15.6003 4.89822C16.313 5.61058 16.8772 6.44829 17.293 7.41134C17.7087 8.3744 17.9166 9.40335 17.9166 10.4982C17.9166 11.5932 17.7088 12.6225 17.2933 13.5859C16.8777 14.5494 16.3137 15.3875 15.6014 16.1001C14.889 16.8127 14.0513 17.377 13.0883 17.7928C12.1252 18.2085 11.0962 18.4163 10.0014 18.4163ZM9.99992 17.1663C11.861 17.1663 13.4374 16.5205 14.7291 15.2288C16.0208 13.9372 16.6666 12.3608 16.6666 10.4997C16.6666 8.63856 16.0208 7.06217 14.7291 5.77051C13.4374 4.47884 11.861 3.83301 9.99992 3.83301C8.13881 3.83301 6.56242 4.47884 5.27075 5.77051C3.97909 7.06217 3.33325 8.63856 3.33325 10.4997C3.33325 12.3608 3.97909 13.9372 5.27075 15.2288C6.56242 16.5205 8.13881 17.1663 9.99992 17.1663Z" fill="#99E39E"/>
</g>
</svg>
