<svg width="20" height="20" viewBox="0 0 20 20" fill="none" xmlns="http://www.w3.org/2000/svg">
<mask id="mask0_1386_10691" style="mask-type:alpha" maskUnits="userSpaceOnUse" x="0" y="0" width="20" height="20">
<rect width="20" height="20" fill="#D9D9D9"/>
</mask>
<g mask="url(#mask0_1386_10691)">
<path d="M9.37467 13.9584H10.6247V9.16671H9.37467V13.9584ZM9.99967 7.74046C10.1904 7.74046 10.3502 7.67594 10.4793 7.54692C10.6083 7.41789 10.6728 7.25803 10.6728 7.06733C10.6728 6.87664 10.6083 6.71678 10.4793 6.58775C10.3502 6.45886 10.1904 6.39442 9.99967 6.39442C9.80898 6.39442 9.64912 6.45886 9.52009 6.58775C9.39106 6.71678 9.32655 6.87664 9.32655 7.06733C9.32655 7.25803 9.39106 7.41789 9.52009 7.54692C9.64912 7.67594 9.80898 7.74046 9.99967 7.74046ZM10.0011 17.9167C8.90613 17.9167 7.8769 17.7089 6.91342 17.2934C5.94995 16.8778 5.1119 16.3139 4.39926 15.6015C3.68662 14.8891 3.12238 14.0514 2.70655 13.0884C2.29085 12.1253 2.08301 11.0964 2.08301 10.0015C2.08301 8.9065 2.29079 7.87726 2.70634 6.91379C3.1219 5.95032 3.68586 5.11226 4.39822 4.39962C5.11058 3.68698 5.94829 3.12275 6.91134 2.70692C7.8744 2.29122 8.90335 2.08337 9.99822 2.08337C11.0932 2.08337 12.1225 2.29115 13.0859 2.70671C14.0494 3.12226 14.8875 3.68622 15.6001 4.39858C16.3127 5.11094 16.877 5.94865 17.2928 6.91171C17.7085 7.87476 17.9163 8.90372 17.9163 9.99858C17.9163 11.0936 17.7086 12.1228 17.293 13.0863C16.8775 14.0498 16.3135 14.8878 15.6011 15.6005C14.8888 16.3131 14.0511 16.8773 13.088 17.2932C12.125 17.7089 11.096 17.9167 10.0011 17.9167ZM9.99967 16.6667C11.8608 16.6667 13.4372 16.0209 14.7288 14.7292C16.0205 13.4375 16.6663 11.8612 16.6663 10C16.6663 8.13893 16.0205 6.56254 14.7288 5.27087C13.4372 3.97921 11.8608 3.33337 9.99967 3.33337C8.13856 3.33337 6.56217 3.97921 5.27051 5.27087C3.97884 6.56254 3.33301 8.13893 3.33301 10C3.33301 11.8612 3.97884 13.4375 5.27051 14.7292C6.56217 16.0209 8.13856 16.6667 9.99967 16.6667Z" fill="#9BE4A0"/>
</g>
</svg>
