<svg width="20" height="20" viewBox="0 0 20 20" fill="none" xmlns="http://www.w3.org/2000/svg">
<mask id="mask0_3247_10049" style="mask-type:alpha" maskUnits="userSpaceOnUse" x="0" y="0" width="20" height="20">
<rect width="20" height="20" fill="#D9D9D9"/>
</mask>
<g mask="url(#mask0_3247_10049)">
<path d="M15.774 17.0837L11.1796 12.4891L12.4967 11.1718L17.0913 15.7664L15.774 17.0837ZM4.23402 17.0837L2.91673 15.7664L8.6909 9.99242L6.74527 8.05471L6.2261 8.57409L5.29985 7.63971V9.24388L4.78048 9.76305L2.42798 7.41055L2.94715 6.89138H4.55131L3.62985 5.97784L6.01131 3.59659C6.24631 3.36145 6.50083 3.18943 6.77485 3.08055C7.04888 2.97152 7.33388 2.917 7.62985 2.917C7.92583 2.917 8.21083 2.97152 8.48485 3.08055C8.75888 3.18943 9.0134 3.36145 9.2484 3.59659L7.60423 5.24075L8.58173 6.21826L8.06256 6.73742L10.008 8.67513L12.0113 6.6718C11.9184 6.50305 11.8505 6.32867 11.8078 6.14867C11.765 5.96853 11.7436 5.77916 11.7436 5.58055C11.7436 4.83055 12.0021 4.197 12.5192 3.67992C13.0363 3.16284 13.6699 2.9043 14.4199 2.9043C14.5962 2.9043 14.7648 2.91978 14.9255 2.95075C15.0863 2.98173 15.2479 3.03353 15.4103 3.10617L13.5161 5.00034L15.0001 6.4843L16.8942 4.59013C16.9755 4.75249 17.0294 4.91409 17.0561 5.07492C17.0828 5.23562 17.0961 5.40416 17.0961 5.58055C17.0961 6.33055 16.8376 6.96409 16.3205 7.48117C15.8034 7.99826 15.1699 8.2568 14.4199 8.2568C14.2212 8.2568 14.0319 8.23756 13.8517 8.19909C13.6717 8.16062 13.4974 8.09062 13.3286 7.98909L4.23402 17.0837Z" fill="#99E39E"/>
</g>
</svg>
