<svg width="20" height="21" viewBox="0 0 20 21" fill="none" xmlns="http://www.w3.org/2000/svg">
<path d="M9.31818 4.36364V8.45455C9.31818 8.8162 9.17451 9.16305 8.91878 9.41878C8.66305 9.67451 8.3162 9.81818 7.95455 9.81818H3.86364C3.50198 9.81818 3.15513 9.67451 2.8994 9.41878C2.64367 9.16305 2.5 8.8162 2.5 8.45455V4.36364C2.5 4.00198 2.64367 3.65513 2.8994 3.3994C3.15513 3.14367 3.50198 3 3.86364 3H7.95455C8.3162 3 8.66305 3.14367 8.91878 3.3994C9.17451 3.65513 9.31818 4.00198 9.31818 4.36364ZM7.95455 11.1818H3.86364C3.50198 11.1818 3.15513 11.3255 2.8994 11.5812C2.64367 11.8369 2.5 12.1838 2.5 12.5455V16.6364C2.5 16.998 2.64367 17.3449 2.8994 17.6006C3.15513 17.8563 3.50198 18 3.86364 18H7.95455C8.3162 18 8.66305 17.8563 8.91878 17.6006C9.17451 17.3449 9.31818 16.998 9.31818 16.6364V12.5455C9.31818 12.1838 9.17451 11.8369 8.91878 11.5812C8.66305 11.3255 8.3162 11.1818 7.95455 11.1818ZM16.1364 3H12.0455C11.6838 3 11.3369 3.14367 11.0812 3.3994C10.8255 3.65513 10.6818 4.00198 10.6818 4.36364V8.45455C10.6818 8.8162 10.8255 9.16305 11.0812 9.41878C11.3369 9.67451 11.6838 9.81818 12.0455 9.81818H16.1364C16.498 9.81818 16.8449 9.67451 17.1006 9.41878C17.3563 9.16305 17.5 8.8162 17.5 8.45455V4.36364C17.5 4.00198 17.3563 3.65513 17.1006 3.3994C16.8449 3.14367 16.498 3 16.1364 3ZM11.3636 15.2727C11.5445 15.2727 11.7179 15.2009 11.8458 15.073C11.9736 14.9452 12.0455 14.7717 12.0455 14.5909V11.8636C12.0455 11.6828 11.9736 11.5094 11.8458 11.3815C11.7179 11.2537 11.5445 11.1818 11.3636 11.1818C11.1828 11.1818 11.0094 11.2537 10.8815 11.3815C10.7537 11.5094 10.6818 11.6828 10.6818 11.8636V14.5909C10.6818 14.7717 10.7537 14.9452 10.8815 15.073C11.0094 15.2009 11.1828 15.2727 11.3636 15.2727ZM16.8182 12.5455H14.7727V11.8636C14.7727 11.6828 14.7009 11.5094 14.573 11.3815C14.4452 11.2537 14.2717 11.1818 14.0909 11.1818C13.9101 11.1818 13.7367 11.2537 13.6088 11.3815C13.4809 11.5094 13.4091 11.6828 13.4091 11.8636V16.6364H11.3636C11.1828 16.6364 11.0094 16.7082 10.8815 16.8361C10.7537 16.9639 10.6818 17.1374 10.6818 17.3182C10.6818 17.499 10.7537 17.6724 10.8815 17.8003C11.0094 17.9282 11.1828 18 11.3636 18H14.0909C14.2717 18 14.4452 17.9282 14.573 17.8003C14.7009 17.6724 14.7727 17.499 14.7727 17.3182V13.9091H16.8182C16.999 13.9091 17.1724 13.8373 17.3003 13.7094C17.4282 13.5815 17.5 13.4081 17.5 13.2273C17.5 13.0464 17.4282 12.873 17.3003 12.7452C17.1724 12.6173 16.999 12.5455 16.8182 12.5455ZM16.8182 15.2727C16.6374 15.2727 16.4639 15.3446 16.3361 15.4724C16.2082 15.6003 16.1364 15.7737 16.1364 15.9545V17.3182C16.1364 17.499 16.2082 17.6724 16.3361 17.8003C16.4639 17.9282 16.6374 18 16.8182 18C16.999 18 17.1724 17.9282 17.3003 17.8003C17.4282 17.6724 17.5 17.499 17.5 17.3182V15.9545C17.5 15.7737 17.4282 15.6003 17.3003 15.4724C17.1724 15.3446 16.999 15.2727 16.8182 15.2727Z" fill="#D0FFD3"/>
</svg>
