<svg width="20" height="20" viewBox="0 0 20 20" fill="none" xmlns="http://www.w3.org/2000/svg">
<path d="M6.875 8.12483H3.125C2.95924 8.12483 2.80027 8.05898 2.68306 7.94177C2.56585 7.82456 2.5 7.66559 2.5 7.49983V3.74983C2.4999 3.62614 2.53651 3.50521 2.60517 3.40234C2.67384 3.29947 2.77149 3.21929 2.88576 3.17194C3.00002 3.1246 3.12576 3.11222 3.24707 3.13637C3.36837 3.16053 3.47978 3.22013 3.56719 3.30764L5 4.74202C6.38453 3.40581 8.2321 2.6567 10.1562 2.65139H10.1977C12.1571 2.64634 14.0396 3.41345 15.4375 4.78655C15.5516 4.90331 15.6155 5.06011 15.6156 5.2234C15.6156 5.38668 15.5517 5.54348 15.4375 5.66026C15.3234 5.77704 15.1681 5.84452 15.0049 5.84826C14.8416 5.85201 14.6834 5.79172 14.5641 5.6803C13.3989 4.53661 11.8303 3.89757 10.1977 3.90139H10.1625C8.56889 3.9059 7.03801 4.52295 5.88672 5.62483L7.31719 7.05764C7.4047 7.14505 7.4643 7.25646 7.48846 7.37776C7.51261 7.49907 7.50023 7.62481 7.45289 7.73907C7.40554 7.85334 7.32536 7.95099 7.22249 8.01965C7.11962 8.08832 6.99868 8.12493 6.875 8.12483ZM16.875 11.8748H13.125C13.0013 11.8747 12.8804 11.9113 12.7775 11.98C12.6746 12.0487 12.5945 12.1463 12.5471 12.2606C12.4998 12.3749 12.4874 12.5006 12.5115 12.6219C12.5357 12.7432 12.5953 12.8546 12.6828 12.942L14.1133 14.3748C12.9625 15.4774 11.4319 16.0953 9.83828 16.1006H9.80313C8.17045 16.1044 6.60189 15.4654 5.43672 14.3217C5.37851 14.2622 5.30898 14.2148 5.23222 14.1825C5.15546 14.1502 5.07302 14.1336 4.98974 14.1336C4.90646 14.1336 4.82402 14.1502 4.74727 14.1826C4.67051 14.2149 4.60099 14.2622 4.54278 14.3218C4.48457 14.3813 4.43886 14.4519 4.40832 14.5294C4.37778 14.6069 4.36303 14.6897 4.36494 14.7729C4.36685 14.8562 4.38538 14.9382 4.41944 15.0142C4.4535 15.0902 4.5024 15.1586 4.56328 15.2155C5.96115 16.5886 7.84369 17.3557 9.80313 17.3506H9.84375C11.7679 17.3453 13.6155 16.5962 15 15.26L16.4344 16.6944C16.522 16.7815 16.6335 16.8407 16.7548 16.8644C16.876 16.8882 17.0016 16.8755 17.1156 16.8279C17.2297 16.7804 17.327 16.7001 17.3955 16.5972C17.4639 16.4943 17.5003 16.3734 17.5 16.2498V12.4998C17.5 12.3341 17.4342 12.1751 17.3169 12.0579C17.1997 11.9407 17.0408 11.8748 16.875 11.8748Z" fill="white"/>
</svg>
