<svg width="16" height="16" viewBox="0 0 16 16" fill="none" xmlns="http://www.w3.org/2000/svg">
<path d="M13.8669 6.67945C13.8464 6.64849 13.8193 6.62247 13.7876 6.60327C13.7558 6.58408 13.7202 6.5722 13.6832 6.56849C13.6463 6.56478 13.609 6.56933 13.5741 6.58182C13.5392 6.59431 13.5074 6.61443 13.4812 6.6407L8.76748 11.3545C8.67208 11.4392 8.54787 11.4843 8.42029 11.4805C8.29272 11.4767 8.17144 11.4242 8.08131 11.3338C7.99118 11.2434 7.93902 11.122 7.93552 10.9944C7.93202 10.8668 7.97744 10.7428 8.06248 10.6476L13.8562 4.85445C13.9027 4.808 13.9395 4.75285 13.9647 4.69215C13.9898 4.63145 14.0028 4.5664 14.0028 4.5007C14.0028 4.435 13.9898 4.36995 13.9647 4.30925C13.9395 4.24856 13.9027 4.19341 13.8562 4.14695C13.8098 4.1005 13.7546 4.06365 13.6939 4.03851C13.6332 4.01336 13.5682 4.00042 13.5025 4.00042C13.4368 4.00042 13.3717 4.01336 13.311 4.03851C13.2503 4.06365 13.1952 4.1005 13.1487 4.14695L12.3125 4.98383C11.119 4.05175 9.65564 3.53161 8.14165 3.5014C6.62767 3.47118 5.14467 3.93251 3.91499 4.81622C2.68531 5.69993 1.7752 6.95842 1.32109 8.40302C0.866981 9.84761 0.893348 11.4005 1.39623 12.8288C1.46513 13.0247 1.59295 13.1944 1.76215 13.3147C1.93135 13.435 2.13363 13.5 2.34123 13.5007H13.6581C13.8655 13.5008 14.0678 13.4365 14.237 13.3165C14.4062 13.1966 14.5339 13.0271 14.6025 12.8313C14.9589 11.818 15.0779 10.7364 14.9504 9.66981C14.8228 8.60324 14.4521 7.58017 13.8669 6.67945ZM3.58998 11.4013C3.61633 11.5313 3.58998 11.6664 3.51673 11.7769C3.44347 11.8874 3.32931 11.9643 3.19936 11.9907C3.16645 11.9974 3.13295 12.0008 3.09936 12.0007C2.98411 12.0006 2.87246 11.9606 2.78328 11.8876C2.69411 11.8146 2.63289 11.713 2.60998 11.6001C2.43119 10.7199 2.4705 9.80939 2.7245 8.94793C2.97849 8.08646 3.43945 7.30025 4.06714 6.65788C4.69484 6.01551 5.4702 5.53652 6.32556 5.2627C7.18093 4.98887 8.09031 4.92853 8.97436 5.08695C9.1049 5.11032 9.2208 5.18459 9.29658 5.29342C9.37235 5.40225 9.40179 5.53673 9.37842 5.66726C9.35505 5.7978 9.28078 5.91371 9.17195 5.98948C9.06312 6.06526 8.92865 6.0947 8.79811 6.07133C8.07468 5.94181 7.33055 5.99128 6.63063 6.21541C5.93071 6.43954 5.29626 6.83153 4.78263 7.35718C4.269 7.88283 3.89179 8.52617 3.6839 9.23109C3.47602 9.93601 3.44377 10.6811 3.58998 11.4013Z" fill="white" fill-opacity="0.6"/>
</svg>
