<svg width="20" height="20" viewBox="0 0 20 20" fill="none" xmlns="http://www.w3.org/2000/svg">
<mask id="mask0_3238_9632" style="mask-type:alpha" maskUnits="userSpaceOnUse" x="0" y="0" width="20" height="20">
<rect width="20" height="20" fill="#D9D9D9"/>
</mask>
<g mask="url(#mask0_3238_9632)">
<path d="M16.2852 17.1472L11.0513 11.913C10.6346 12.257 10.1554 12.5263 9.61375 12.7207C9.07209 12.9152 8.51174 13.0124 7.93271 13.0124C6.50841 13.0124 5.30299 12.5193 4.31646 11.533C3.32993 10.5468 2.83667 9.34163 2.83667 7.9176C2.83667 6.49372 3.32979 5.28816 4.31604 4.30094C5.30229 3.31385 6.50743 2.82031 7.93146 2.82031C9.35535 2.82031 10.5609 3.31358 11.5481 4.3001C12.5352 5.28663 13.0288 6.49205 13.0288 7.91635C13.0288 8.51149 12.9289 9.0799 12.7292 9.62156C12.5293 10.1632 12.2627 10.6343 11.9294 11.0349L17.1633 16.2689L16.2852 17.1472ZM7.93271 11.7626C9.00646 11.7626 9.91591 11.39 10.661 10.6447C11.4063 9.89955 11.779 8.9901 11.779 7.91635C11.779 6.8426 11.4063 5.93316 10.661 5.18802C9.91591 4.44274 9.00646 4.0701 7.93271 4.0701C6.85896 4.0701 5.94952 4.44274 5.20438 5.18802C4.4591 5.93316 4.08646 6.8426 4.08646 7.91635C4.08646 8.9901 4.4591 9.89955 5.20438 10.6447C5.94952 11.39 6.85896 11.7626 7.93271 11.7626Z" fill="white"/>
</g>
</svg>
