<svg width="21" height="21" viewBox="0 0 21 21" fill="none" xmlns="http://www.w3.org/2000/svg">
<path d="M18.7919 3.67743C18.7919 3.67743 18.7919 3.68488 18.7919 3.6886L14.4607 17.9726C14.3952 18.2046 14.2602 18.411 14.074 18.5641C13.8878 18.7172 13.6592 18.8097 13.4189 18.8292C13.3846 18.8322 13.3504 18.8337 13.3162 18.8337C13.091 18.8344 12.8703 18.7706 12.6801 18.65C12.49 18.5293 12.3383 18.3568 12.243 18.1527L9.53419 12.5936C9.50708 12.5379 9.49804 12.4751 9.50831 12.414C9.51858 12.3529 9.54766 12.2965 9.59149 12.2528L13.9019 7.9424C14.0088 7.82984 14.0675 7.67996 14.0655 7.52471C14.0636 7.36947 14.001 7.22114 13.8912 7.11136C13.7814 7.00157 13.6331 6.93902 13.4779 6.93703C13.3226 6.93504 13.1727 6.99378 13.0602 7.10072L8.74758 11.4111C8.70379 11.4549 8.64742 11.484 8.58633 11.4943C8.52523 11.5045 8.46245 11.4955 8.40674 11.4684L2.84241 8.76027C2.62483 8.65588 2.4441 8.48784 2.32417 8.27841C2.20425 8.06898 2.15079 7.82806 2.17088 7.58757C2.19098 7.34707 2.28368 7.11836 2.43669 6.93174C2.58971 6.74512 2.79582 6.6094 3.02772 6.54257L17.3117 2.21137H17.3229C17.5263 2.15424 17.7412 2.15223 17.9456 2.20557C18.15 2.25891 18.3365 2.36566 18.4861 2.51489C18.6356 2.66411 18.7427 2.85043 18.7965 3.05473C18.8502 3.25902 18.8487 3.47394 18.7919 3.67743Z" fill="#D0FFD3"/>
</svg>
