<svg width="20" height="20" viewBox="0 0 20 20" fill="none" xmlns="http://www.w3.org/2000/svg">
<mask id="mask0_3238_9635" style="mask-type:alpha" maskUnits="userSpaceOnUse" x="0" y="0" width="20" height="20">
<rect width="20" height="20" fill="#D9D9D9"/>
</mask>
<g mask="url(#mask0_3238_9635)">
<path d="M14.7115 16.3783C13.9308 16.3783 13.2708 16.1088 12.7317 15.5698C12.1926 15.0306 11.9231 14.3707 11.9231 13.59C11.9231 12.8092 12.1926 12.1492 12.7317 11.6102C13.2708 11.071 13.9308 10.8014 14.7115 10.8014C15.4923 10.8014 16.1522 11.071 16.6913 11.6102C17.2304 12.1492 17.5 12.8092 17.5 13.59C17.5 14.3707 17.2304 15.0306 16.6913 15.5698C16.1522 16.1088 15.4923 16.3783 14.7115 16.3783ZM14.7106 15.1283C15.1353 15.1283 15.4981 14.9783 15.799 14.6781C16.0997 14.3778 16.25 14.0154 16.25 13.5908C16.25 13.1661 16.0999 12.8033 15.7996 12.5025C15.4994 12.2018 15.137 12.0514 14.7123 12.0514C14.2876 12.0514 13.9249 12.2016 13.6242 12.5019C13.3235 12.802 13.1731 13.1644 13.1731 13.5892C13.1731 14.0139 13.3232 14.3766 13.6233 14.6773C13.9236 14.978 14.286 15.1283 14.7106 15.1283ZM3.75 14.215V12.965H10.0963V14.215H3.75ZM5.28854 9.19895C4.50771 9.19895 3.84778 8.92936 3.30875 8.39019C2.76958 7.85117 2.5 7.19124 2.5 6.4104C2.5 5.62971 2.76958 4.96978 3.30875 4.43061C3.84778 3.89158 4.50771 3.62207 5.28854 3.62207C6.06924 3.62207 6.72917 3.89158 7.26833 4.43061C7.80736 4.96978 8.07688 5.62971 8.07688 6.4104C8.07688 7.19124 7.80736 7.85117 7.26833 8.39019C6.72917 8.92936 6.06924 9.19895 5.28854 9.19895ZM5.28771 7.94895C5.71243 7.94895 6.07514 7.79881 6.37583 7.49853C6.67653 7.19839 6.82688 6.83596 6.82688 6.41124C6.82688 5.98651 6.67681 5.62381 6.37667 5.32311C6.07639 5.02242 5.71396 4.87207 5.28937 4.87207C4.86465 4.87207 4.50187 5.02214 4.20104 5.32228C3.90035 5.62256 3.75 5.98499 3.75 6.40957C3.75 6.83429 3.90014 7.19707 4.20042 7.4979C4.50056 7.7986 4.86299 7.94895 5.28771 7.94895ZM9.90375 7.0354V5.7854H16.25V7.0354H9.90375Z" fill="white"/>
</g>
</svg>
