<svg width="20" height="20" viewBox="0 0 20 20" fill="none" xmlns="http://www.w3.org/2000/svg">
<mask id="mask0_1386_10684" style="mask-type:alpha" maskUnits="userSpaceOnUse" x="0" y="0" width="20" height="20">
<rect width="20" height="20" fill="#D9D9D9"/>
</mask>
<g mask="url(#mask0_1386_10684)">
<path d="M14.0043 17.9167C13.3805 17.9167 12.8509 17.6986 12.4155 17.2623C11.9802 16.8261 11.7626 16.2964 11.7626 15.6732C11.7626 15.5898 11.7914 15.3873 11.8491 15.0657L5.9228 11.5769C5.72197 11.7852 5.48336 11.9484 5.20697 12.0665C4.93058 12.1846 4.63447 12.2436 4.31863 12.2436C3.69766 12.2436 3.16981 12.0246 2.73509 11.5865C2.30037 11.1484 2.08301 10.6196 2.08301 10C2.08301 9.38046 2.30037 8.85164 2.73509 8.41358C3.16981 7.97553 3.69766 7.7565 4.31863 7.7565C4.63447 7.7565 4.93058 7.81553 5.20697 7.93358C5.48336 8.05164 5.72197 8.21483 5.9228 8.42317L11.8491 4.94233C11.816 4.83983 11.7933 4.73942 11.7809 4.64108C11.7687 4.54275 11.7626 4.43803 11.7626 4.32692C11.7626 3.70372 11.9809 3.174 12.4174 2.73775C12.854 2.3015 13.3843 2.08337 14.008 2.08337C14.6318 2.08337 15.1613 2.30171 15.5966 2.73837C16.032 3.1749 16.2497 3.70504 16.2497 4.32879C16.2497 4.95254 16.0316 5.48212 15.5953 5.91754C15.159 6.35282 14.6293 6.57046 14.0061 6.57046C13.6888 6.57046 13.3936 6.51011 13.1207 6.38942C12.8477 6.26872 12.6107 6.10421 12.4099 5.89587L6.48363 9.38462C6.51669 9.48726 6.5394 9.58768 6.55176 9.68587C6.56398 9.78421 6.57009 9.88893 6.57009 10C6.57009 10.1112 6.56398 10.2159 6.55176 10.3142C6.5394 10.4124 6.51669 10.5128 6.48363 10.6155L12.4099 14.1042C12.6107 13.8959 12.8477 13.7314 13.1207 13.6107C13.3936 13.49 13.6888 13.4296 14.0061 13.4296C14.6293 13.4296 15.159 13.6479 15.5953 14.0844C16.0316 14.5211 16.2497 15.0513 16.2497 15.675C16.2497 16.2988 16.0313 16.8283 15.5947 17.2636C15.1581 17.699 14.628 17.9167 14.0043 17.9167ZM14.0061 16.6667C14.2877 16.6667 14.5236 16.5715 14.714 16.3811C14.9045 16.1907 14.9997 15.9547 14.9997 15.6732C14.9997 15.3916 14.9045 15.1557 14.714 14.9653C14.5236 14.7747 14.2877 14.6794 14.0061 14.6794C13.7246 14.6794 13.4886 14.7747 13.2982 14.9653C13.1077 15.1557 13.0124 15.3916 13.0124 15.6732C13.0124 15.9547 13.1077 16.1907 13.2982 16.3811C13.4886 16.5715 13.7246 16.6667 14.0061 16.6667ZM4.31863 10.9936C4.60238 10.9936 4.84023 10.8984 5.03217 10.708C5.22426 10.5175 5.3203 10.2816 5.3203 10C5.3203 9.71851 5.22426 9.48254 5.03217 9.29212C4.84023 9.10171 4.60238 9.0065 4.31863 9.0065C4.03933 9.0065 3.80523 9.10171 3.61634 9.29212C3.42745 9.48254 3.33301 9.71851 3.33301 10C3.33301 10.2816 3.42745 10.5175 3.61634 10.708C3.80523 10.8984 4.03933 10.9936 4.31863 10.9936ZM14.0061 5.32067C14.2877 5.32067 14.5236 5.22539 14.714 5.03483C14.9045 4.84442 14.9997 4.60844 14.9997 4.32692C14.9997 4.04539 14.9045 3.80942 14.714 3.619C14.5236 3.42858 14.2877 3.33337 14.0061 3.33337C13.7246 3.33337 13.4886 3.42858 13.2982 3.619C13.1077 3.80942 13.0124 4.04539 13.0124 4.32692C13.0124 4.60844 13.1077 4.84442 13.2982 5.03483C13.4886 5.22539 13.7246 5.32067 14.0061 5.32067Z" fill="#9BE4A0"/>
</g>
</svg>
