<svg width="16" height="16" viewBox="0 0 16 16" fill="none" xmlns="http://www.w3.org/2000/svg">
<path d="M13 5H3C2.86739 5 2.74021 4.94732 2.64645 4.85355C2.55268 4.75979 2.5 4.63261 2.5 4.5C2.5 4.36739 2.55268 4.24021 2.64645 4.14645C2.74021 4.05268 2.86739 4 3 4H11.5C11.6326 4 11.7598 3.94732 11.8536 3.85355C11.9473 3.75979 12 3.63261 12 3.5C12 3.36739 11.9473 3.24021 11.8536 3.14645C11.7598 3.05268 11.6326 3 11.5 3H3C2.60218 3 2.22064 3.15804 1.93934 3.43934C1.65804 3.72064 1.5 4.10218 1.5 4.5V12.5C1.5 12.8978 1.65804 13.2794 1.93934 13.5607C2.22064 13.842 2.60218 14 3 14H13C13.2652 14 13.5196 13.8946 13.7071 13.7071C13.8946 13.5196 14 13.2652 14 13V6C14 5.73478 13.8946 5.48043 13.7071 5.29289C13.5196 5.10536 13.2652 5 13 5ZM10.75 10C10.6017 10 10.4567 9.95601 10.3333 9.8736C10.21 9.79119 10.1139 9.67406 10.0571 9.53701C10.0003 9.39997 9.98547 9.24917 10.0144 9.10368C10.0434 8.9582 10.1148 8.82456 10.2197 8.71967C10.3246 8.61478 10.4582 8.54335 10.6037 8.51441C10.7492 8.48547 10.9 8.50032 11.037 8.55709C11.1741 8.61386 11.2912 8.70999 11.3736 8.83332C11.456 8.95666 11.5 9.10166 11.5 9.25C11.5 9.44891 11.421 9.63968 11.2803 9.78033C11.1397 9.92098 10.9489 10 10.75 10Z" fill="white" fill-opacity="0.6"/>
</svg>
