<svg width="24" height="24" viewBox="0 0 24 24" fill="none" xmlns="http://www.w3.org/2000/svg">
<mask id="mask0_2117_1250" style="mask-type:alpha" maskUnits="userSpaceOnUse" x="0" y="0" width="24" height="24">
<rect width="24" height="24" fill="#D9D9D9"/>
</mask>
<g mask="url(#mask0_2117_1250)">
<path d="M5.30775 20.5004C4.80908 20.5004 4.38308 20.3238 4.02975 19.9706C3.67658 19.6173 3.5 19.1913 3.5 18.6926V5.30814C3.5 4.80947 3.67658 4.38347 4.02975 4.03014C4.38308 3.67697 4.80908 3.50039 5.30775 3.50039H18.6923C19.1909 3.50039 19.6169 3.67697 19.9703 4.03014C20.3234 4.38347 20.5 4.80947 20.5 5.30814V8.02939H19V5.30814C19 5.21831 18.9712 5.14456 18.9135 5.08689C18.8558 5.02922 18.7821 5.00039 18.6923 5.00039H5.30775C5.21792 5.00039 5.14417 5.02922 5.0865 5.08689C5.02883 5.14456 5 5.21831 5 5.30814V18.6926C5 18.7825 5.02883 18.8562 5.0865 18.9139C5.14417 18.9716 5.21792 19.0004 5.30775 19.0004H18.6923C18.7821 19.0004 18.8558 18.9716 18.9135 18.9139C18.9712 18.8562 19 18.7825 19 18.6926V15.9714H20.5V18.6926C20.5 19.1913 20.3234 19.6173 19.9703 19.9706C19.6169 20.3238 19.1909 20.5004 18.6923 20.5004H5.30775ZM13.3077 16.5004C12.8091 16.5004 12.3831 16.3238 12.0297 15.9706C11.6766 15.6173 11.5 15.1913 11.5 14.6926V9.30814C11.5 8.80947 11.6766 8.38347 12.0297 8.03014C12.3831 7.67697 12.8091 7.50039 13.3077 7.50039H19.6923C20.1909 7.50039 20.6169 7.67697 20.9703 8.03014C21.3234 8.38347 21.5 8.80947 21.5 9.30814V14.6926C21.5 15.1913 21.3234 15.6173 20.9703 15.9706C20.6169 16.3238 20.1909 16.5004 19.6923 16.5004H13.3077ZM19.6923 15.0004C19.7821 15.0004 19.8558 14.9716 19.9135 14.9139C19.9712 14.8562 20 14.7825 20 14.6926V9.30814C20 9.21831 19.9712 9.14456 19.9135 9.08689C19.8558 9.02922 19.7821 9.00039 19.6923 9.00039H13.3077C13.2179 9.00039 13.1442 9.02922 13.0865 9.08689C13.0288 9.14456 13 9.21831 13 9.30814V14.6926C13 14.7825 13.0288 14.8562 13.0865 14.9139C13.1442 14.9716 13.2179 15.0004 13.3077 15.0004H19.6923ZM16 13.5004C16.4167 13.5004 16.7708 13.3546 17.0625 13.0629C17.3542 12.7712 17.5 12.4171 17.5 12.0004C17.5 11.5837 17.3542 11.2296 17.0625 10.9379C16.7708 10.6462 16.4167 10.5004 16 10.5004C15.5833 10.5004 15.2292 10.6462 14.9375 10.9379C14.6458 11.2296 14.5 11.5837 14.5 12.0004C14.5 12.4171 14.6458 12.7712 14.9375 13.0629C15.2292 13.3546 15.5833 13.5004 16 13.5004Z" fill="#99E39E"/>
</g>
</svg>
