<svg width="20" height="20" viewBox="0 0 20 20" fill="none" xmlns="http://www.w3.org/2000/svg">
<path d="M15.8492 16.719C15.8026 16.804 15.734 16.8748 15.6506 16.9243C15.5673 16.9737 15.4722 16.9998 15.3753 17H12.1253C12.0341 17 11.9444 16.9769 11.8645 16.933C11.7846 16.8891 11.7171 16.8257 11.6682 16.7488L8.92672 12.4405L4.94276 16.8226C4.84564 16.9269 4.71132 16.9888 4.56891 16.9947C4.4265 17.0007 4.28748 16.9503 4.182 16.8544C4.07652 16.7585 4.01307 16.625 4.00541 16.4826C3.99776 16.3403 4.04651 16.2007 4.1411 16.0941L8.32344 11.4899L4.0849 4.83281C4.0327 4.75091 4.00347 4.65649 4.00029 4.55942C3.99711 4.46235 4.02008 4.36621 4.06681 4.28107C4.11353 4.19593 4.18229 4.12492 4.26587 4.07547C4.34946 4.02602 4.44481 3.99995 4.54193 4H7.79193C7.88309 4.00003 7.97278 4.02306 8.05267 4.06698C8.13256 4.11089 8.20007 4.17425 8.24896 4.2512L10.9905 8.55948L14.9744 4.1774C15.0715 4.07307 15.2059 4.01123 15.3483 4.00528C15.4907 3.99933 15.6297 4.04975 15.7352 4.14561C15.8407 4.24147 15.9041 4.37505 15.9118 4.51737C15.9194 4.6597 15.8707 4.79931 15.7761 4.90594L11.5938 9.50672L15.8323 16.1679C15.8842 16.2498 15.9132 16.3442 15.9161 16.4411C15.9191 16.5381 15.896 16.634 15.8492 16.719Z" fill="#9BE4A0"/>
</svg>
