<svg width="21" height="22" viewBox="0 0 21 22" fill="none" xmlns="http://www.w3.org/2000/svg">
<path d="M10.5 21.5C16.299 21.5 21 16.799 21 11C21 5.20101 16.299 0.5 10.5 0.5C4.70101 0.5 0 5.20101 0 11C0 16.799 4.70101 21.5 10.5 21.5Z" fill="white" fill-opacity="0.15"/>
<path d="M14.3678 8.85572C14.2651 7.53894 13.1356 7.07787 11.706 6.92686L11.7383 5.1027L10.6289 5.08458L10.5966 6.86042C10.3047 6.85438 10.0067 6.85639 9.70872 6.85639L9.74094 5.06847L8.63154 5.04834L8.59933 6.8725C8.35973 6.8725 8.12215 6.87451 7.89262 6.86847V6.86243L6.3604 6.83626L6.34027 8.02217C6.34027 8.02217 7.16174 8.02015 7.14765 8.03626C7.59664 8.04431 7.7396 8.30807 7.77785 8.53358L7.74161 10.6114C7.77181 10.6114 7.81208 10.6134 7.85839 10.6215L7.74161 10.6195L7.69127 13.5309C7.66913 13.6718 7.58255 13.8953 7.26644 13.8913C7.28054 13.9034 6.45906 13.8772 6.45906 13.8772L6.21544 15.198L7.66107 15.2242C7.92886 15.2302 8.19463 15.2383 8.45436 15.2443L8.42215 17.0886L9.53154 17.1067L9.56376 15.2826C9.86778 15.2926 10.1638 15.3007 10.4517 15.3067L10.4195 17.1228L11.5289 17.141L11.5611 15.3007C13.4295 15.2262 14.7443 14.7792 14.9376 13.0275C15.0926 11.6181 14.4403 10.9759 13.3852 10.704C14.0336 10.39 14.4463 9.82015 14.3678 8.85572ZM12.745 12.7738C12.7228 14.153 10.3631 13.9537 9.61006 13.9416L9.65436 11.4973C10.4074 11.5094 12.7711 11.3342 12.745 12.7738ZM12.2899 9.31478C12.2678 10.5691 10.3007 10.3879 9.67449 10.3779L9.71275 8.16109C10.3389 8.17116 12.3121 8.00606 12.2899 9.31478Z" fill="white"/>
</svg>
