<svg width="21" height="21" viewBox="0 0 21 21" fill="none" xmlns="http://www.w3.org/2000/svg">
<mask id="mask0_3878_10740" style="mask-type:alpha" maskUnits="userSpaceOnUse" x="0" y="0" width="21" height="21">
<rect x="0.5" y="0.5" width="20" height="20" fill="#D9D9D9"/>
</mask>
<g mask="url(#mask0_3878_10740)">
<path d="M9.75001 16.3333H11.2083V15.2916C11.9028 15.1666 12.5 14.8958 13 14.4791C13.5 14.0625 13.75 13.4444 13.75 12.625C13.75 12.0416 13.5833 11.5069 13.25 11.0208C12.9167 10.5347 12.25 10.1111 11.25 9.74996C10.4167 9.47218 9.84028 9.22913 9.52084 9.02079C9.20139 8.81246 9.04167 8.52774 9.04167 8.16663C9.04167 7.80551 9.17014 7.52079 9.42709 7.31246C9.68403 7.10413 10.0556 6.99996 10.5417 6.99996C10.9861 6.99996 11.3333 7.1076 11.5833 7.32288C11.8333 7.53815 12.0139 7.80551 12.125 8.12496L13.4583 7.58329C13.3056 7.09718 13.0243 6.67357 12.6146 6.31246C12.2049 5.95135 11.75 5.74996 11.25 5.70829V4.66663H9.79167V5.70829C9.09723 5.86107 8.55556 6.16663 8.16667 6.62496C7.77778 7.08329 7.58334 7.59718 7.58334 8.16663C7.58334 8.8194 7.77431 9.34718 8.15625 9.74996C8.5382 10.1527 9.13889 10.5 9.95834 10.7916C10.8333 11.1111 11.441 11.3958 11.7813 11.6458C12.1215 11.8958 12.2917 12.2222 12.2917 12.625C12.2917 13.0833 12.1285 13.4201 11.8021 13.6354C11.4757 13.8507 11.0833 13.9583 10.625 13.9583C10.1667 13.9583 9.76042 13.8159 9.40625 13.5312C9.05209 13.2465 8.79167 12.8194 8.625 12.25L7.25 12.7916C7.44445 13.4583 7.74653 13.9965 8.15625 14.4062C8.56598 14.8159 9.09723 15.0972 9.75001 15.25V16.3333ZM10.5 18.8333C9.34723 18.8333 8.26389 18.6145 7.25 18.177C6.23612 17.7395 5.35417 17.1458 4.60417 16.3958C3.85417 15.6458 3.26042 14.7638 2.82292 13.75C2.38542 12.7361 2.16667 11.6527 2.16667 10.5C2.16667 9.34718 2.38542 8.26385 2.82292 7.24996C3.26042 6.23607 3.85417 5.35413 4.60417 4.60413C5.35417 3.85413 6.23612 3.26038 7.25 2.82288C8.26389 2.38538 9.34723 2.16663 10.5 2.16663C11.6528 2.16663 12.7361 2.38538 13.75 2.82288C14.7639 3.26038 15.6458 3.85413 16.3958 4.60413C17.1458 5.35413 17.7396 6.23607 18.1771 7.24996C18.6146 8.26385 18.8333 9.34718 18.8333 10.5C18.8333 11.6527 18.6146 12.7361 18.1771 13.75C17.7396 14.7638 17.1458 15.6458 16.3958 16.3958C15.6458 17.1458 14.7639 17.7395 13.75 18.177C12.7361 18.6145 11.6528 18.8333 10.5 18.8333Z" fill="#D0FFD3"/>
</g>
</svg>
