<svg width="20" height="20" viewBox="0 0 20 20" fill="none" xmlns="http://www.w3.org/2000/svg">
<mask id="mask0_1386_10677" style="mask-type:alpha" maskUnits="userSpaceOnUse" x="0" y="0" width="20" height="20">
<rect width="20" height="20" fill="#D9D9D9"/>
</mask>
<g mask="url(#mask0_1386_10677)">
<path d="M4.16699 15.0352C4.91699 14.2991 5.78852 13.7192 6.78158 13.2956C7.77463 12.872 8.84755 12.6602 10.0003 12.6602C11.1531 12.6602 12.226 12.872 13.2191 13.2956C14.2121 13.7192 15.0837 14.2991 15.8337 15.0352V4.42308C15.8337 4.35892 15.8069 4.30017 15.7535 4.24683C15.7001 4.19336 15.6414 4.16663 15.5772 4.16663H4.42345C4.35928 4.16663 4.30053 4.19336 4.2472 4.24683C4.19373 4.30017 4.16699 4.35892 4.16699 4.42308V15.0352ZM10.0003 10.8654C10.7524 10.8654 11.3919 10.602 11.9187 10.0754C12.4453 9.54857 12.7087 8.90913 12.7087 8.15704C12.7087 7.40496 12.4453 6.76552 11.9187 6.23871C11.3919 5.71204 10.7524 5.44871 10.0003 5.44871C9.24824 5.44871 8.6088 5.71204 8.08199 6.23871C7.55533 6.76552 7.29199 7.40496 7.29199 8.15704C7.29199 8.90913 7.55533 9.54857 8.08199 10.0754C8.6088 10.602 9.24824 10.8654 10.0003 10.8654ZM4.42345 17.0833C4.00248 17.0833 3.64616 16.9375 3.35449 16.6458C3.06283 16.3541 2.91699 15.9978 2.91699 15.5768V4.42308C2.91699 4.00211 3.06283 3.64579 3.35449 3.35413C3.64616 3.06246 4.00248 2.91663 4.42345 2.91663H15.5772C15.9982 2.91663 16.3545 3.06246 16.6462 3.35413C16.9378 3.64579 17.0837 4.00211 17.0837 4.42308V15.5768C17.0837 15.9978 16.9378 16.3541 16.6462 16.6458C16.3545 16.9375 15.9982 17.0833 15.5772 17.0833H4.42345ZM5.14783 15.8333H14.8528C14.1456 15.1848 13.3746 14.7022 12.5397 14.3854C11.7047 14.0686 10.8582 13.9102 10.0003 13.9102C9.1531 13.9102 8.30505 14.0686 7.45616 14.3854C6.60741 14.7022 5.83796 15.1848 5.14783 15.8333ZM10.0003 9.61538C9.59963 9.61538 9.25644 9.47246 8.97074 9.18663C8.68491 8.90093 8.54199 8.55774 8.54199 8.15704C8.54199 7.75635 8.68491 7.41315 8.97074 7.12746C9.25644 6.84163 9.59963 6.69871 10.0003 6.69871C10.401 6.69871 10.7442 6.84163 11.0299 7.12746C11.3157 7.41315 11.4587 7.75635 11.4587 8.15704C11.4587 8.55774 11.3157 8.90093 11.0299 9.18663C10.7442 9.47246 10.401 9.61538 10.0003 9.61538Z" fill="#9BE4A0"/>
</g>
</svg>
