<svg width="20" height="20" viewBox="0 0 20 20" fill="none" xmlns="http://www.w3.org/2000/svg">
<mask id="mask0_3391_4776" style="mask-type:alpha" maskUnits="userSpaceOnUse" x="0" y="0" width="20" height="20">
<rect width="20" height="20" fill="#D9D9D9"/>
</mask>
<g mask="url(#mask0_3391_4776)">
<path d="M9.40733 17.4495C9.16523 17.4495 8.96269 17.3679 8.79974 17.2048C8.63662 17.0418 8.55506 16.8393 8.55506 16.5972V11.0214L3.16255 4.17094C2.97728 3.92386 2.95038 3.66698 3.08187 3.40031C3.21352 3.13348 3.43556 3.00006 3.74799 3.00006H16.252C16.5644 3.00006 16.7865 3.13348 16.9181 3.40031C17.0496 3.66698 17.0227 3.92386 16.8375 4.17094L11.4449 11.0214V16.5972C11.4449 16.8393 11.3634 17.0418 11.2003 17.2048C11.0373 17.3679 10.8348 17.4495 10.5927 17.4495H9.40733Z" fill="#004104"/>
</g>
</svg>
