<svg width="20" height="20" viewBox="0 0 20 20" fill="none" xmlns="http://www.w3.org/2000/svg">
<mask id="mask0_1386_10705" style="mask-type:alpha" maskUnits="userSpaceOnUse" x="0" y="0" width="20" height="20">
<rect width="20" height="20" fill="#D9D9D9"/>
</mask>
<g mask="url(#mask0_1386_10705)">
<path d="M9.99051 14.6794C10.2284 14.6794 10.4294 14.5973 10.5934 14.4332C10.7575 14.2689 10.8395 14.0677 10.8395 13.8296C10.8395 13.5917 10.7573 13.3907 10.593 13.2267C10.4287 13.0628 10.2276 12.9809 9.98967 12.9809C9.75176 12.9809 9.55079 13.063 9.38676 13.2273C9.22273 13.3916 9.14072 13.5927 9.14072 13.8307C9.14072 14.0686 9.22287 14.2696 9.38717 14.4336C9.55148 14.5975 9.75259 14.6794 9.99051 14.6794ZM9.4003 11.6955H10.5734C10.5841 11.2853 10.6442 10.9576 10.7536 10.7123C10.8632 10.4672 11.129 10.1422 11.5509 9.73733C11.9175 9.3708 12.1981 9.03233 12.393 8.72192C12.588 8.41164 12.6855 8.04518 12.6855 7.62254C12.6855 6.90518 12.4278 6.34483 11.9124 5.9415C11.3968 5.5383 10.787 5.33671 10.083 5.33671C9.38745 5.33671 8.8119 5.52233 8.35634 5.89358C7.90065 6.26483 7.57558 6.70205 7.38113 7.20525L8.45155 7.63462C8.55308 7.35796 8.72669 7.08844 8.97238 6.82608C9.21808 6.56386 9.58294 6.43275 10.067 6.43275C10.5595 6.43275 10.9235 6.56761 11.159 6.83733C11.3947 7.10719 11.5126 7.40393 11.5126 7.72754C11.5126 8.01074 11.4319 8.26983 11.2705 8.50483C11.1093 8.73983 10.9036 8.96685 10.6536 9.18587C10.1066 9.67948 9.76092 10.0732 9.61676 10.3671C9.47245 10.6609 9.4003 11.1037 9.4003 11.6955ZM10.0011 17.9167C8.90613 17.9167 7.8769 17.7089 6.91342 17.2934C5.94995 16.8778 5.1119 16.3139 4.39926 15.6015C3.68662 14.8891 3.12238 14.0514 2.70655 13.0884C2.29085 12.1253 2.08301 11.0964 2.08301 10.0015C2.08301 8.9065 2.29079 7.87726 2.70634 6.91379C3.1219 5.95032 3.68586 5.11226 4.39822 4.39962C5.11058 3.68698 5.94829 3.12275 6.91134 2.70692C7.8744 2.29122 8.90335 2.08337 9.99822 2.08337C11.0932 2.08337 12.1225 2.29115 13.0859 2.70671C14.0494 3.12226 14.8875 3.68622 15.6001 4.39858C16.3127 5.11094 16.877 5.94865 17.2928 6.91171C17.7085 7.87476 17.9163 8.90372 17.9163 9.99858C17.9163 11.0936 17.7086 12.1228 17.293 13.0863C16.8775 14.0498 16.3135 14.8878 15.6011 15.6005C14.8888 16.3131 14.0511 16.8773 13.088 17.2932C12.125 17.7089 11.096 17.9167 10.0011 17.9167ZM9.99967 16.6667C11.8608 16.6667 13.4372 16.0209 14.7288 14.7292C16.0205 13.4375 16.6663 11.8612 16.6663 10C16.6663 8.13893 16.0205 6.56254 14.7288 5.27087C13.4372 3.97921 11.8608 3.33337 9.99967 3.33337C8.13856 3.33337 6.56217 3.97921 5.27051 5.27087C3.97884 6.56254 3.33301 8.13893 3.33301 10C3.33301 11.8612 3.97884 13.4375 5.27051 14.7292C6.56217 16.0209 8.13856 16.6667 9.99967 16.6667Z" fill="#9BE4A0"/>
</g>
</svg>
