<svg width="24" height="24" viewBox="0 0 24 24" fill="none" xmlns="http://www.w3.org/2000/svg">
<path d="M11.1818 4.63636V9.54545C11.1818 9.97944 11.0094 10.3957 10.7025 10.7025C10.3957 11.0094 9.97944 11.1818 9.54545 11.1818H4.63636C4.20237 11.1818 3.78616 11.0094 3.47928 10.7025C3.1724 10.3957 3 9.97944 3 9.54545V4.63636C3 4.20237 3.1724 3.78616 3.47928 3.47928C3.78616 3.1724 4.20237 3 4.63636 3H9.54545C9.97944 3 10.3957 3.1724 10.7025 3.47928C11.0094 3.78616 11.1818 4.20237 11.1818 4.63636ZM9.54545 12.8182H4.63636C4.20237 12.8182 3.78616 12.9906 3.47928 13.2975C3.1724 13.6043 3 14.0206 3 14.4545V19.3636C3 19.7976 3.1724 20.2138 3.47928 20.5207C3.78616 20.8276 4.20237 21 4.63636 21H9.54545C9.97944 21 10.3957 20.8276 10.7025 20.5207C11.0094 20.2138 11.1818 19.7976 11.1818 19.3636V14.4545C11.1818 14.0206 11.0094 13.6043 10.7025 13.2975C10.3957 12.9906 9.97944 12.8182 9.54545 12.8182ZM19.3636 3H14.4545C14.0206 3 13.6043 3.1724 13.2975 3.47928C12.9906 3.78616 12.8182 4.20237 12.8182 4.63636V9.54545C12.8182 9.97944 12.9906 10.3957 13.2975 10.7025C13.6043 11.0094 14.0206 11.1818 14.4545 11.1818H19.3636C19.7976 11.1818 20.2138 11.0094 20.5207 10.7025C20.8276 10.3957 21 9.97944 21 9.54545V4.63636C21 4.20237 20.8276 3.78616 20.5207 3.47928C20.2138 3.1724 19.7976 3 19.3636 3ZM13.6364 17.7273C13.8534 17.7273 14.0615 17.6411 14.2149 17.4876C14.3683 17.3342 14.4545 17.1261 14.4545 16.9091V13.6364C14.4545 13.4194 14.3683 13.2113 14.2149 13.0578C14.0615 12.9044 13.8534 12.8182 13.6364 12.8182C13.4194 12.8182 13.2113 12.9044 13.0578 13.0578C12.9044 13.2113 12.8182 13.4194 12.8182 13.6364V16.9091C12.8182 17.1261 12.9044 17.3342 13.0578 17.4876C13.2113 17.6411 13.4194 17.7273 13.6364 17.7273ZM20.1818 14.4545H17.7273V13.6364C17.7273 13.4194 17.6411 13.2113 17.4876 13.0578C17.3342 12.9044 17.1261 12.8182 16.9091 12.8182C16.6921 12.8182 16.484 12.9044 16.3305 13.0578C16.1771 13.2113 16.0909 13.4194 16.0909 13.6364V19.3636H13.6364C13.4194 19.3636 13.2113 19.4498 13.0578 19.6033C12.9044 19.7567 12.8182 19.9648 12.8182 20.1818C12.8182 20.3988 12.9044 20.6069 13.0578 20.7604C13.2113 20.9138 13.4194 21 13.6364 21H16.9091C17.1261 21 17.3342 20.9138 17.4876 20.7604C17.6411 20.6069 17.7273 20.3988 17.7273 20.1818V16.0909H20.1818C20.3988 16.0909 20.6069 16.0047 20.7604 15.8513C20.9138 15.6978 21 15.4897 21 15.2727C21 15.0557 20.9138 14.8476 20.7604 14.6942C20.6069 14.5407 20.3988 14.4545 20.1818 14.4545ZM20.1818 17.7273C19.9648 17.7273 19.7567 17.8135 19.6033 17.9669C19.4498 18.1204 19.3636 18.3285 19.3636 18.5455V20.1818C19.3636 20.3988 19.4498 20.6069 19.6033 20.7604C19.7567 20.9138 19.9648 21 20.1818 21C20.3988 21 20.6069 20.9138 20.7604 20.7604C20.9138 20.6069 21 20.3988 21 20.1818V18.5455C21 18.3285 20.9138 18.1204 20.7604 17.9669C20.6069 17.8135 20.3988 17.7273 20.1818 17.7273Z" fill="#D0FFD3"/>
</svg>
