<svg width="20" height="20" viewBox="0 0 20 20" fill="none" xmlns="http://www.w3.org/2000/svg">
<mask id="mask0_1386_9032" style="mask-type:alpha" maskUnits="userSpaceOnUse" x="0" y="0" width="20" height="20">
<rect width="20" height="20" fill="#D9D9D9"/>
</mask>
<g mask="url(#mask0_1386_9032)">
<path d="M2.9165 9.1665V2.9165H9.1665V9.1665H2.9165ZM4.1665 7.9165H7.9165V4.1665H4.1665V7.9165ZM2.9165 17.0832V10.8332H9.1665V17.0832H2.9165ZM4.1665 15.8332H7.9165V12.0832H4.1665V15.8332ZM10.8332 9.1665V2.9165H17.0832V9.1665H10.8332ZM12.0832 7.9165H15.8332V4.1665H12.0832V7.9165ZM15.5207 17.0832V15.5207H17.0832V17.0832H15.5207ZM10.8332 12.3957V10.8332H12.3957V12.3957H10.8332ZM12.3957 13.9582V12.3957H13.9582V13.9582H12.3957ZM10.8332 15.5207V13.9582H12.3957V15.5207H10.8332ZM12.3957 17.0832V15.5207H13.9582V17.0832H12.3957ZM13.9582 15.5207V13.9582H15.5207V15.5207H13.9582ZM13.9582 12.3957V10.8332H15.5207V12.3957H13.9582ZM15.5207 13.9582V12.3957H17.0832V13.9582H15.5207Z" fill="white"/>
</g>
</svg>
