<svg width="24" height="24" viewBox="0 0 24 24" fill="none" xmlns="http://www.w3.org/2000/svg">
<path d="M21.9502 3.81253C21.9502 3.81253 21.9502 3.82146 21.9502 3.82592L16.7528 20.9668C16.6741 21.2452 16.5122 21.4928 16.2887 21.6766C16.0652 21.8603 15.7909 21.9713 15.5026 21.9946C15.4615 21.9982 15.4204 22 15.3793 22C15.1091 22.0008 14.8442 21.9243 14.6161 21.7796C14.3879 21.6348 14.2059 21.4277 14.0916 21.1829L10.8409 14.5119C10.8084 14.4451 10.7975 14.3697 10.8099 14.2964C10.8222 14.2231 10.8571 14.1555 10.9097 14.1029L16.0821 8.93049C16.2105 8.79542 16.2809 8.61556 16.2786 8.42927C16.2762 8.24297 16.2011 8.06498 16.0694 7.93324C15.9376 7.8015 15.7596 7.72643 15.5733 7.72405C15.387 7.72166 15.2072 7.79215 15.0721 7.92047L9.897 13.0929C9.84446 13.1455 9.77681 13.1804 9.7035 13.1927C9.63018 13.2051 9.55484 13.1942 9.48799 13.1617L2.8108 9.91193C2.54969 9.78666 2.33282 9.58501 2.18891 9.3337C2.045 9.08239 1.98085 8.79328 2.00496 8.50469C2.02908 8.2161 2.14031 7.94164 2.32394 7.7177C2.50756 7.49376 2.75489 7.33089 3.03316 7.2507L20.174 2.05326H20.1874C20.4314 1.98469 20.6893 1.98229 20.9346 2.04629C21.1799 2.1103 21.4038 2.23841 21.5832 2.41748C21.7626 2.59655 21.8912 2.82013 21.9557 3.06528C22.0202 3.31044 22.0183 3.56834 21.9502 3.81253Z" fill="#D0FFD3"/>
</svg>
