<svg width="20" height="21" viewBox="0 0 20 21" fill="none" xmlns="http://www.w3.org/2000/svg">
<mask id="mask0_3878_10734" style="mask-type:alpha" maskUnits="userSpaceOnUse" x="0" y="0" width="20" height="21">
<rect y="0.5" width="20" height="20" fill="#D9D9D9"/>
</mask>
<g mask="url(#mask0_3878_10734)">
<path d="M10.0417 17.1667C8.18055 17.1667 6.59722 16.5209 5.29167 15.2292C3.98611 13.9375 3.33333 12.3612 3.33333 10.5V10.3542L2 11.6875L0.833332 10.5209L4.16667 7.18754L7.5 10.5209L6.33333 11.6875L5 10.3542V10.5C5 11.8889 5.48958 13.0695 6.46875 14.0417C7.44792 15.0139 8.63889 15.5 10.0417 15.5C10.4028 15.5 10.7569 15.4584 11.1042 15.375C11.4514 15.2917 11.7917 15.1667 12.125 15L13.375 16.25C12.8472 16.5556 12.3056 16.7848 11.75 16.9375C11.1944 17.0903 10.625 17.1667 10.0417 17.1667ZM15.8333 13.8125L12.5 10.4792L13.6667 9.31254L15 10.6459V10.5C15 9.11115 14.5104 7.9306 13.5312 6.95837C12.5521 5.98615 11.3611 5.50004 9.95833 5.50004C9.59722 5.50004 9.24305 5.54171 8.89583 5.62504C8.54861 5.70837 8.20833 5.83337 7.875 6.00004L6.625 4.75004C7.15278 4.44449 7.69444 4.21532 8.25 4.06254C8.80556 3.90976 9.375 3.83337 9.95833 3.83337C11.8194 3.83337 13.4028 4.47921 14.7083 5.77087C16.0139 7.06254 16.6667 8.63893 16.6667 10.5V10.6459L18 9.31254L19.1667 10.4792L15.8333 13.8125Z" fill="#D0FFD3"/>
</g>
</svg>
