<svg width="24" height="24" viewBox="0 0 24 24" fill="none" xmlns="http://www.w3.org/2000/svg">
<mask id="mask0_1386_11474" style="mask-type:alpha" maskUnits="userSpaceOnUse" x="0" y="0" width="24" height="24">
<rect width="24" height="24" fill="#D9D9D9"/>
</mask>
<g mask="url(#mask0_1386_11474)">
<path d="M5.30775 20.5005C4.80908 20.5005 4.38308 20.3239 4.02975 19.9707C3.67658 19.6174 3.5 19.1914 3.5 18.6927V5.30824C3.5 4.80957 3.67658 4.38357 4.02975 4.03024C4.38308 3.67707 4.80908 3.50049 5.30775 3.50049H18.6923C19.1909 3.50049 19.6169 3.67707 19.9703 4.03024C20.3234 4.38357 20.5 4.80957 20.5 5.30824V8.02949H19V5.30824C19 5.2184 18.9712 5.14466 18.9135 5.08699C18.8558 5.02932 18.7821 5.00049 18.6923 5.00049H5.30775C5.21792 5.00049 5.14417 5.02932 5.0865 5.08699C5.02883 5.14466 5 5.2184 5 5.30824V18.6927C5 18.7826 5.02883 18.8563 5.0865 18.914C5.14417 18.9717 5.21792 19.0005 5.30775 19.0005H18.6923C18.7821 19.0005 18.8558 18.9717 18.9135 18.914C18.9712 18.8563 19 18.7826 19 18.6927V15.9715H20.5V18.6927C20.5 19.1914 20.3234 19.6174 19.9703 19.9707C19.6169 20.3239 19.1909 20.5005 18.6923 20.5005H5.30775ZM13.3077 16.5005C12.8091 16.5005 12.3831 16.3239 12.0297 15.9707C11.6766 15.6174 11.5 15.1914 11.5 14.6927V9.30824C11.5 8.80957 11.6766 8.38357 12.0297 8.03024C12.3831 7.67707 12.8091 7.50049 13.3077 7.50049H19.6923C20.1909 7.50049 20.6169 7.67707 20.9703 8.03024C21.3234 8.38357 21.5 8.80957 21.5 9.30824V14.6927C21.5 15.1914 21.3234 15.6174 20.9703 15.9707C20.6169 16.3239 20.1909 16.5005 19.6923 16.5005H13.3077ZM19.6923 15.0005C19.7821 15.0005 19.8558 14.9717 19.9135 14.914C19.9712 14.8563 20 14.7826 20 14.6927V9.30824C20 9.21841 19.9712 9.14466 19.9135 9.08699C19.8558 9.02932 19.7821 9.00049 19.6923 9.00049H13.3077C13.2179 9.00049 13.1442 9.02932 13.0865 9.08699C13.0288 9.14466 13 9.21841 13 9.30824V14.6927C13 14.7826 13.0288 14.8563 13.0865 14.914C13.1442 14.9717 13.2179 15.0005 13.3077 15.0005H19.6923ZM16 13.5005C16.4167 13.5005 16.7708 13.3547 17.0625 13.063C17.3542 12.7713 17.5 12.4172 17.5 12.0005C17.5 11.5838 17.3542 11.2297 17.0625 10.938C16.7708 10.6463 16.4167 10.5005 16 10.5005C15.5833 10.5005 15.2292 10.6463 14.9375 10.938C14.6458 11.2297 14.5 11.5838 14.5 12.0005C14.5 12.4172 14.6458 12.7713 14.9375 13.063C15.2292 13.3547 15.5833 13.5005 16 13.5005Z" fill="white" fill-opacity="0.5"/>
</g>
</svg>
