<svg width="20" height="20" viewBox="0 0 20 20" fill="none" xmlns="http://www.w3.org/2000/svg">
<mask id="mask0_3262_5852" style="mask-type:alpha" maskUnits="userSpaceOnUse" x="0" y="0" width="20" height="20">
<rect width="20" height="20" fill="#D9D9D9"/>
</mask>
<g mask="url(#mask0_3262_5852)">
<path d="M8.72415 17.9827C6.78506 17.4539 5.17963 16.3125 3.90787 14.5586C2.63596 12.8046 2 10.8437 2 8.67584V3.5173L8.72415 1L15.4483 3.5173V7.79319H13.7845V13.5639L11.3862 11.1656C11.5391 10.9104 11.6566 10.6418 11.7388 10.3598C11.821 10.0777 11.8621 9.78533 11.8621 9.48274C11.8621 8.61981 11.5548 7.88112 10.9402 7.26669C10.3258 6.6521 9.58709 6.3448 8.72415 6.3448C7.86122 6.3448 7.12253 6.6521 6.5081 7.26669C5.89351 7.88112 5.58621 8.61981 5.58621 9.48274C5.58621 10.3457 5.89351 11.0844 6.5081 11.6988C7.12253 12.3134 7.86122 12.6207 8.72415 12.6207C9.02644 12.6207 9.32215 12.5782 9.61129 12.4931C9.90028 12.408 10.1678 12.2804 10.4137 12.1103L13.2311 14.9275C12.6127 15.6746 11.9451 16.3057 11.2285 16.8206C10.5118 17.3355 9.67704 17.7229 8.72415 17.9827ZM8.72415 11.2758C9.21726 11.2758 9.63938 11.1003 9.99053 10.7491C10.3417 10.398 10.5173 9.97585 10.5173 9.48274C10.5173 8.98964 10.3417 8.56751 9.99053 8.21636C9.63938 7.86521 9.21726 7.68963 8.72415 7.68963C8.23105 7.68963 7.80892 7.86521 7.45777 8.21636C7.10662 8.56751 6.93105 8.98964 6.93105 9.48274C6.93105 9.97585 7.10662 10.398 7.45777 10.7491C7.80892 11.1003 8.23105 11.2758 8.72415 11.2758ZM16.4652 18C16.2746 18 16.1149 17.9355 15.9862 17.8066C15.8574 17.6776 15.793 17.5179 15.793 17.3274C15.793 17.1367 15.8575 16.977 15.9865 16.8484C16.1154 16.7196 16.2752 16.6552 16.4659 16.6552C16.6564 16.6552 16.8161 16.7196 16.9449 16.8486C17.0735 16.9776 17.1379 17.1373 17.1379 17.3278C17.1379 17.5185 17.0734 17.6781 16.9444 17.8068C16.8156 17.9356 16.6559 18 16.4652 18ZM15.793 14.6897V9.75866H17.1379V14.6897H15.793Z" fill="#004104"/>
</g>
</svg>
